<?xml version="1.0" encoding="UTF-8"?>
<svg version="1.1" xmlns="http://www.w3.org/2000/svg" width="512" height="512">
<path d="M0 0 C168.96 0 337.92 0 512 0 C512 168.96 512 337.92 512 512 C343.04 512 174.08 512 0 512 C0 343.04 0 174.08 0 0 Z " fill="#DC3545" transform="translate(0,0)"/>
<path d="M0 0 C2.19847175 -0.00965724 4.39598637 -0.04075653 6.59423828 -0.07226562 C19.45992724 -0.16907325 32.02976484 1.41027827 44.16064453 5.92773438 C44.85480469 6.18047119 45.54896484 6.43320801 46.26416016 6.69360352 C57.33970263 10.87711053 67.63282567 16.45807098 76.59814453 24.24023438 C77.39478516 24.89378906 78.19142578 25.54734375 79.01220703 26.22070312 C98.94527494 43.16072524 111.75512781 69.31861136 114.59814453 95.24023438 C114.59814453 98.21023437 114.59814453 101.18023437 114.59814453 104.24023438 C101.06814453 104.24023438 87.53814453 104.24023438 73.59814453 104.24023438 C72.73189453 100.40398437 71.86564453 96.56773437 70.97314453 92.61523438 C66.46871965 73.53911808 59.75734226 57.40254405 43.59814453 45.24023438 C24.9218442 33.76478102 -0.25545422 32.0577974 -21.38085938 36.26733398 C-39.65675375 40.82571763 -55.14209568 52.63345887 -65.30322266 68.40136719 C-79.19353149 91.65065745 -83.50994136 117.88142341 -83.60498047 144.60351562 C-83.61353058 146.50522774 -83.61353058 146.50522774 -83.62225342 148.44535828 C-83.63166231 151.12221847 -83.63857932 153.79896779 -83.64208984 156.47583008 C-83.64644793 159.17421182 -83.66024908 161.87226903 -83.68310547 164.57055664 C-83.84209494 184.84047189 -83.26977654 204.68938827 -77.40185547 224.24023438 C-77.07701172 225.38105469 -76.75216797 226.521875 -76.41748047 227.69726562 C-69.88765339 249.05337816 -58.55436607 267.4130065 -38.80419922 278.72851562 C-20.18632626 288.48347534 4.11256878 289.18575785 24.34423828 284.28320312 C40.86367182 278.98825864 54.19891663 270.16326834 62.34814453 254.55273438 C67.1580819 244.27442273 70.71448962 233.82811724 72.23876953 222.53320312 C72.59814453 220.24023438 72.59814453 220.24023438 73.59814453 218.24023438 C87.12814453 218.24023438 100.65814453 218.24023438 114.59814453 218.24023438 C113.42402299 232.32969283 113.42402299 232.32969283 111.47314453 239.42773438 C111.25577637 240.23017578 111.0384082 241.03261719 110.81445312 241.859375 C105.78957067 259.68982897 97.79832182 274.23750836 85.59814453 288.24023438 C85.05802734 288.86542969 84.51791016 289.490625 83.96142578 290.13476562 C64.18809581 311.40230189 33.64266523 320.16305069 5.51025391 321.37304688 C-28.27280381 322.56050057 -57.86185218 314.60187493 -83.31201172 291.61132812 C-101.66016321 273.88252352 -112.42906032 252.58091107 -119.40185547 228.24023438 C-119.72041504 227.14388672 -119.72041504 227.14388672 -120.04541016 226.02539062 C-124.33999856 210.97681656 -125.72044951 195.99856974 -125.70263672 180.39257812 C-125.70654594 178.92354721 -125.71088494 177.45451738 -125.71562195 175.98548889 C-125.72300713 172.92917191 -125.72285136 169.87297056 -125.7175293 166.81665039 C-125.71291066 163.73642322 -125.71977973 160.65659206 -125.73803711 157.57641602 C-125.9884699 114.89800967 -120.19891493 74.37522301 -92.40185547 40.24023438 C-91.75603516 39.44101563 -91.11021484 38.64179688 -90.44482422 37.81835938 C-72.72925192 16.89161409 -44.73168142 3.05996956 -17.51733398 0.45410156 C-11.68270565 0.05357383 -5.84594519 0.01544163 0 0 Z " fill="#FEFDFD" transform="translate(261.40185546875,95.759765625)"/>
<path d="M0 0 C0.33 0 0.66 0 1 0 C1 13.53 1 27.06 1 41 C-12.53 41 -26.06 41 -40 41 C-36.76284016 39.38142008 -33.61375469 38.05715856 -30.25 36.75 C-17.68117409 31.49394553 -8.15454317 22.24628755 -2.9296875 9.5625 C-1.78124284 6.39703909 -0.79959012 3.27105048 0 0 Z " fill="#000000" transform="translate(511,471)"/>
<path d="M0 0 C1.61102614 3.22205228 2.90350921 6.33510084 4.1875 9.6875 C9.4388475 22.28767199 18.80051593 31.77110159 31.40234375 37.03515625 C34.57753084 38.21451146 37.71018197 39.19582226 41 40 C41 40.33 41 40.66 41 41 C27.47 41 13.94 41 0 41 C0 27.47 0 13.94 0 0 Z " fill="#000000" transform="translate(0,471)"/>
<path d="M0 0 C13.53 0 27.06 0 41 0 C41 13.53 41 27.06 41 41 C39.38897386 37.77794772 38.09649079 34.66489916 36.8125 31.3125 C31.5611525 18.71232801 22.19948407 9.22889841 9.59765625 3.96484375 C6.42246916 2.78548854 3.28981803 1.80417774 0 1 C0 0.67 0 0.34 0 0 Z " fill="#000000" transform="translate(471,0)"/>
<path d="M0 0 C13.53 0 27.06 0 41 0 C37.76284016 1.61857992 34.61375469 2.94284144 31.25 4.25 C18.68117409 9.50605447 9.15454317 18.75371245 3.9296875 31.4375 C2.78124284 34.60296091 1.79959012 37.72894952 1 41 C0.67 41 0.34 41 0 41 C0 27.47 0 13.94 0 0 Z " fill="#000000" transform="translate(0,0)"/>
</svg>
