<?xml version="1.0" encoding="utf-8"?>
<!DOCTYPE svg PUBLIC "-//W3C//DTD SVG 1.0//EN" "http://www.w3.org/TR/2001/REC-SVG-20010904/DTD/svg10.dtd">
<svg version="1.0" xmlns="http://www.w3.org/2000/svg" width="504px" height="538px" viewBox="0 0 504 538" preserveAspectRatio="xMidYMid meet">
 <g fill="#ffffff">
  <path d="M261.40 509.25 c-0.45 -0.45 -0.50 -181.85 -0.10 -183.55 0.15 -0.65 0.60 -1.20 1 -1.20 0.60 0 0.70 9.30 0.75 61.40 0 33.75 0.15 61.05 0.30 60.75 0.10 -0.35 0.75 -0.65 1.40 -0.65 1.25 0 1.75 -0.85 1.75 -3.05 l0 -1.50 3.65 0.15 3.60 0.15 0.15 1.90 c0.10 1 0.35 1.85 0.65 1.85 0.25 0 0.45 0.45 0.45 1 0 0.55 0.25 1 0.50 1 0.30 0 0.50 0.35 0.50 0.75 0 0.40 0.20 0.75 0.45 0.75 0.25 0 0.65 0.85 0.95 1.90 0.25 1 0.50 1.45 0.55 1 0.05 -0.50 0.40 -0.90 0.80 -0.90 0.50 0 0.75 -0.50 0.75 -1.50 0 -1.50 0.05 -1.55 2.25 -1.45 1.20 0.10 2.40 0 2.55 -0.20 0.20 -0.20 -0.35 -0.35 -1.25 -0.35 -1.60 0 -1.60 -0.05 -1.45 -2.10 0.15 -2.10 0.20 -2.15 2.10 -2.30 l1.90 -0.15 -0.15 1.90 -0.20 1.90 2.10 -0.20 2.15 -0.15 0.05 1.90 c0.05 1.10 0.15 1.60 0.30 1.15 0.10 -0.50 0.95 -0.95 2.20 -1.15 l1.95 -0.30 0 -14.75 c0 -12.55 0.10 -14.75 0.75 -14.75 0.40 0 0.85 0.70 1.05 1.80 0.55 2.90 -0.25 86.35 -0.80 86.90 -0.25 0.25 -2.90 0.80 -5.85 1.15 -6.35 0.75 -27.25 1.45 -27.75 0.90z"/>
  <path d="M218.75 505.20 c-1.65 -0.40 -4.20 -0.95 -5.65 -1.20 -3.30 -0.70 -17.95 -4.90 -19.10 -5.50 -0.75 -0.40 -0.90 -1.95 -1.20 -15.10 -0.50 -25.35 -0.30 -31.45 1.20 -34.65 0.25 -0.55 0.70 -1.60 0.95 -2.35 0.35 -0.90 1 -1.40 2 -1.65 1.30 -0.25 1.55 -0.55 1.55 -1.80 0 -0.90 0.35 -1.65 1 -2.05 0.55 -0.35 1 -0.90 1 -1.25 0 -0.40 0.65 -0.65 1.65 -0.65 1.50 0 1.75 -0.20 2.35 -2 0.55 -1.70 0.85 -2 2.10 -2 0.75 0 1.40 -0.20 1.40 -0.50 0 -0.25 0.80 -0.50 1.80 -0.50 l1.85 0 -0.25 2.25 c-0.25 1.95 -0.15 2.25 0.65 2.25 1.45 0 1.40 4 -0.05 4.35 -0.75 0.20 -1 0.70 -1 1.90 0 1.70 1.20 2.75 1.70 1.45 0.15 -0.40 0.95 -0.70 1.80 -0.70 1.25 0 1.50 -0.20 1.50 -1.25 0 -1.20 0.10 -1.25 3.25 -1.25 l3.25 0 0 2 c0 1.65 0.15 2 1 2 1 0 1 -0.05 0.90 -142.10 -0.15 -130.90 -0.20 -142.30 -1 -143.90 -2.30 -4.90 -9.30 -10.05 -13.75 -10.15 -2.65 0 -8.15 1.20 -8.15 1.85 0 0.30 -1.25 1.85 -2.75 3.45 -1.50 1.55 -2.75 3.10 -2.75 3.45 0 1.60 -1.25 3.90 -2.15 3.90 -2.10 0 0.25 -6.25 3.75 -9.80 4.85 -5 12.75 -6.35 18.95 -3.20 2.90 1.50 7.25 5.95 8.60 8.85 l1.10 2.40 0.15 168.50 c0.10 92.70 0 170.15 -0.15 172.15 l-0.35 3.60 -2.05 -0.05 c-1.15 -0.05 -3.45 -0.35 -5.10 -0.75z"/>
  <path d="M331.85 500.20 c-0.45 -0.45 -0.45 -105 -0.05 -106.55 0.20 -0.65 0.65 -1.15 1 -1.15 0.60 0 0.70 4.40 0.70 27.25 0 17.85 0.15 27.25 0.50 27.25 0.30 0 0.50 -0.20 0.50 -0.50 0 -0.25 0.45 -0.50 1.05 -0.50 0.55 0 1.60 -0.45 2.30 -1 0.85 -0.65 2.05 -1 3.45 -1 1.95 0 2.20 0.15 2.20 1.15 0 0.90 0.10 0.95 0.50 0.35 0.25 -0.40 0.50 -1.70 0.50 -2.85 0 -2.05 0.05 -2.15 1.50 -2.15 1.30 0 1.50 -0.20 1.50 -1.30 0 -2.10 1.05 -2.70 4.95 -2.70 2.80 0 3.55 -0.15 3.55 -0.75 0 -0.50 0.55 -0.75 1.75 -0.75 1.65 0 1.75 0.10 1.75 1.70 0 1.20 -0.25 1.80 -0.85 1.95 -0.85 0.20 -0.85 0.25 0 0.30 0.75 0.05 0.90 0.40 0.75 2.20 -0.10 1.75 -0.35 2.15 -1.25 2.25 -0.65 0.10 -1.15 0.50 -1.15 0.90 0 0.45 -0.55 0.70 -1.60 0.70 -0.90 0 -2.10 0.35 -2.60 0.75 -0.55 0.40 -0.70 0.75 -0.40 0.75 0.35 0 0.60 0.35 0.60 0.80 0 0.40 0.35 1.10 0.75 1.50 0.65 0.70 0.75 0.55 0.75 -1 l0 -1.80 2.50 0 c2.15 0 2.50 0.15 2.50 1 0 0.65 0.35 1 1 1 0.75 0 1 0.35 1 1.25 0 0.75 0.30 1.25 0.70 1.25 0.50 0 0.80 0.70 0.95 2.15 0.10 1.15 0.20 -11.85 0.25 -28.95 0.10 -27.50 0 -31.30 -0.70 -33.50 -0.45 -1.35 -1.05 -2.65 -1.25 -2.90 -0.25 -0.30 -0.45 -0.90 -0.45 -1.40 0 -0.50 -0.15 -0.90 -0.35 -0.90 -0.25 0 -1.60 -1.15 -3.05 -2.55 -1.45 -1.35 -3.30 -2.60 -4.15 -2.80 -0.80 -0.15 -1.60 -0.50 -1.75 -0.70 -0.45 -0.75 -5.20 -0.50 -7.90 0.45 -1.40 0.45 -2.95 1.35 -3.45 2 -0.65 0.75 -1.45 1.10 -2.65 1.10 -1.60 0 -1.70 0.10 -1.70 1.75 0 1 -0.45 2.65 -1 3.75 -0.55 1.10 -1 2.40 -1 3 0 0.65 -0.35 1 -1 1 -2.50 0 -0.20 -6.65 3.60 -10.35 4.10 -4 6.30 -4.90 11.65 -4.90 4 0 4.85 0.15 7.40 1.45 3.50 1.80 6.50 4.90 8.25 8.70 l1.35 2.85 0.15 46.25 c0.10 25.45 0 47.65 -0.15 49.35 l-0.35 3.15 -2.30 1.05 c-8.05 3.65 -18.40 7.50 -25.35 9.45 -2.15 0.60 -4.20 1.20 -4.50 1.30 -0.30 0.15 -0.70 0.05 -0.90 -0.10z"/>
  <path d="M154.25 483.35 c-0.55 -0.35 -3.20 -1.80 -5.90 -3.25 -5 -2.70 -16.45 -10.10 -21.40 -13.90 l-2.85 -2.15 0.15 -10.15 c0.10 -5.60 0.20 -10.15 0.20 -10.15 0.05 0 0.15 -1.50 0.20 -3.40 0.20 -4.05 0.75 -4.75 4.20 -5.15 l2.50 -0.30 0.70 -3.85 c0.70 -3.75 0.70 -3.80 2.35 -3.95 0.85 -0.10 1.60 -0.35 1.60 -0.65 0 -0.25 0.30 -0.45 0.70 -0.45 0.40 0 0.80 -0.50 0.90 -1.10 0.10 -0.95 0.50 -1.20 2.05 -1.30 1.85 -0.15 1.85 -0.15 1.85 1.75 0 1.05 -0.20 2.70 -0.45 3.70 -0.40 1.80 -0.40 1.85 1.35 2.15 1 0.15 3.05 0.15 4.65 -0.05 2.75 -0.25 2.85 -0.25 3.05 0.90 0.05 0.65 0.45 1.20 0.80 1.15 0.30 -0.05 1.30 -0.10 2.10 -0.10 l1.50 -0.10 0 -4.50 c0 -3.65 0.15 -4.50 0.75 -4.50 0.65 0 0.75 -11 0.75 -96 0 -81.70 0.10 -96 0.70 -96 0.40 0 0.85 0.55 1 1.25 0.40 1.55 0.35 247.45 -0.05 249.40 -0.30 1.50 -1.55 1.75 -3.40 0.70z"/>
  <path d="M401.85 468.15 c-0.45 -0.40 -0.45 -65.50 -0.05 -67 0.20 -0.65 0.65 -1.15 1 -1.15 0.60 0 0.70 5.25 0.70 33.20 0 26.10 0.15 33.25 0.65 33.50 0.40 0.15 0.30 0.45 -0.35 1 -1.10 0.90 -1.45 0.95 -1.95 0.45z"/>
  <path d="M405 465.50 c0 -1 0.30 -1.65 0.90 -1.85 0.45 -0.20 0.95 -0.50 1.10 -0.70 1 -1.35 5.25 -3.95 6.50 -3.95 1 0 1.50 -0.25 1.50 -0.75 0 -0.50 -0.55 -0.75 -1.75 -0.75 -1.65 0 -1.75 -0.10 -1.75 -1.70 0 -0.95 0.20 -2.30 0.50 -3 0.35 -1.05 0.30 -1.30 -0.25 -1.30 -0.50 0 -0.75 -0.55 -0.75 -1.75 0 -1.70 0.05 -1.75 2 -1.75 1.95 0 2 0.05 2 1.75 0 1.40 0.20 1.75 1 1.75 0.85 0 1 0.35 1 2.05 l0 2.05 1.30 -1.55 c0.70 -0.85 1.45 -1.55 1.65 -1.55 0.20 0 2.05 -1.55 4.10 -3.50 2.30 -2.15 4.15 -3.50 4.85 -3.50 0.70 0 1.10 -0.30 1.10 -0.90 0 -1.10 11.50 -12.60 12.65 -12.60 0.50 0 0.85 -0.40 0.85 -1 0 -0.60 0.75 -1.90 1.70 -2.90 0.95 -1 4 -4.65 6.80 -8.10 2.80 -3.45 5.70 -7 6.55 -7.95 0.80 -0.95 1.45 -1.80 1.45 -1.90 0 -0.45 9.10 -13.90 9.55 -14.05 0.25 -0.10 0.45 -0.50 0.45 -0.90 0 -0.40 0.25 -0.70 0.50 -0.70 0.30 0 0.50 -0.45 0.50 -1 0 -0.55 0.35 -1.15 0.75 -1.30 0.40 -0.20 0.75 -0.60 0.75 -0.95 0 -0.30 0.35 -1.30 0.80 -2.15 0.55 -1.15 1.10 -1.60 2 -1.60 0.65 0 1.20 0.15 1.20 0.35 0 1.30 -10.05 17.15 -15.75 24.90 -13.85 18.70 -35.45 40.15 -52.35 51.95 l-3.40 2.35 0 -1.55z"/>
  <path d="M413.60 445.15 c0.10 -1.40 0.40 -1.95 1.15 -2.10 1 -0.15 2.75 -1.85 2.75 -2.65 0 -0.25 0.85 -0.40 1.90 -0.30 1.75 0.15 1.85 0.25 2 2 0.15 1.45 -0.05 1.90 -0.85 2.15 -0.60 0.15 -1.05 0.55 -1.05 0.80 0 0.25 -0.35 0.45 -0.75 0.45 -0.40 0 -0.75 0.35 -0.75 0.75 0 0.55 -0.60 0.75 -2.30 0.75 l-2.25 0 0.15 -1.85z"/>
  <path d="M83.90 430.40 c-11 -12.50 -17.90 -21.95 -26.10 -35.75 -3.25 -5.55 -12.55 -23.80 -14.30 -28.10 -0.50 -1.25 -1.30 -3.15 -1.70 -4.15 l-0.80 -1.90 1.25 0 c1.25 0 1.40 0.25 2.75 3.75 0.20 0.55 1.10 2.40 1.95 4.05 0.85 1.70 1.55 3.80 1.55 4.65 0 1.05 0.25 1.55 0.75 1.55 1 0 2.25 2.60 2.25 4.75 0 1.20 0.20 1.75 0.75 1.75 0.45 0 0.75 0.45 0.75 1.25 0 0.75 0.30 1.25 0.75 1.25 0.75 0 3.25 4.40 3.25 5.75 0 0.40 0.20 0.75 0.45 0.75 0.55 0 2.55 3.30 2.55 4.30 0 0.45 0.55 0.70 1.75 0.70 1.10 0 1.90 0.30 2.05 0.75 0.20 0.50 1 0.75 2.25 0.75 1.95 0 1.95 0 1.95 2 0 1.35 -0.20 2 -0.70 2 -1.05 0 -0.35 2.35 0.80 2.65 0.80 0.25 0.95 0.65 0.85 2.30 -0.10 1.45 0.15 2.45 0.95 3.50 0.60 0.85 1.10 1.85 1.10 2.25 0 1.50 3.05 1.75 4.40 0.30 0.75 -0.80 1.85 -1.05 6 -1.30 l5.05 -0.35 0.20 -76.05 c0.10 -41.85 0.35 -76.65 0.60 -77.40 0.25 -0.90 0.70 -1.40 1.30 -1.40 1 0 1 0.25 0.15 8 -0.10 1.25 -0.20 39.15 -0.20 84.30 0 45.10 -0.15 83.10 -0.30 84.35 -0.20 1.30 -0.50 2.35 -0.70 2.35 -0.25 0 -1.85 -1.65 -3.60 -3.60z"/>
  <path d="M199.50 429 l0 -2 2.25 0 2.25 0 0 2 0 2 -2.25 0 -2.25 0 0 -2z"/>
  <path d="M431.50 423.85 c0 -2.60 0.65 -3.35 2.85 -3.35 1.55 0 1.65 0.10 1.65 1.80 0 2.70 -0.75 3.70 -2.75 3.70 -1.75 0 -1.75 -0.05 -1.75 -2.15z"/>
  <path d="M129.35 424.65 c-0.95 -0.95 -0.25 -3.40 1.70 -5.70 1.70 -2.05 2.30 -2.45 3.75 -2.45 1.70 0 1.70 0 1.70 2.30 0 1.85 -0.25 2.50 -1.20 3.25 -0.70 0.55 -1.40 1.40 -1.55 1.95 -0.25 0.75 -0.75 1 -2.20 1 -1.05 0 -2.05 -0.15 -2.20 -0.35z"/>
  <path d="M294 371.25 c0 -33.60 0.10 -39.75 0.70 -39.75 0.40 0 0.85 0.55 1 1.20 0.35 1.50 0.35 75.65 -0.05 77.20 -0.15 0.60 -0.55 1.10 -0.95 1.10 -0.60 0 -0.70 -6.15 -0.70 -39.75z"/>
  <path d="M402 396.30 c0 -5 3.50 -16.25 6.85 -22.05 4.65 -8.10 12.30 -17.05 18.65 -22 6.90 -5.30 16.20 -9.35 23.05 -10.10 2.80 -0.25 2.95 -0.25 2.95 0.80 0 0.75 -0.30 1.05 -1.15 1.05 -0.65 0 -3.05 0.45 -5.40 1.05 -7.90 1.95 -16.50 7.20 -23.70 14.45 -2.45 2.45 -4.90 4.50 -5.35 4.50 -0.65 0 -0.90 0.40 -0.90 1.40 0 1.65 -1.35 3.10 -2.90 3.10 -0.95 0 -1.10 0.30 -1.10 2 0 1.35 -0.25 2.15 -0.75 2.30 -0.40 0.20 -0.75 0.60 -0.75 0.95 0 0.35 -0.80 2.05 -1.75 3.75 -0.95 1.70 -1.75 3.30 -1.75 3.55 0 0.25 -0.20 0.85 -0.50 1.35 -0.80 1.40 -2.95 9.70 -3.30 12.80 -0.30 2.30 -0.50 2.80 -1.25 2.80 -0.75 0 -0.95 -0.40 -0.95 -1.70z"/>
  <path d="M476.50 384.25 c0 -2.15 0.75 -3.75 1.75 -3.75 0.55 0 0.75 -0.55 0.75 -1.95 0 -1.10 0.25 -2.15 0.50 -2.30 0.30 -0.15 0.50 -0.75 0.50 -1.30 0 -0.70 0.35 -0.95 1.30 -0.95 1.55 0 1.50 0.25 -1.50 6.95 -2.25 5.20 -3.30 6.20 -3.30 3.30z"/>
  <path d="M482 367.15 c0 -1.90 -0.25 -4.30 -0.55 -5.40 -1.55 -5.70 -0.80 -8.35 1.10 -4 1.80 4.05 1.90 12.75 0.20 12.75 -0.60 0 -0.75 -0.75 -0.75 -3.35z"/>
  <path d="M39.85 357.65 c-0.10 -0.50 -0.90 -2.75 -1.75 -5.05 l-1.55 -4.15 1.35 0.15 c1.10 0.15 1.45 0.55 2.10 2.75 0.45 1.45 0.95 2.75 1.15 2.95 0.65 0.70 0.40 4.20 -0.35 4.20 -0.35 0 -0.80 -0.40 -0.95 -0.85z"/>
  <path d="M476.15 352.20 c-3.90 -4.05 -10.30 -7.35 -15.50 -8 -2.15 -0.25 -2.65 -0.50 -2.65 -1.25 0 -1.20 2.35 -1.25 6.65 -0.15 5.95 1.55 13.05 6.15 15.25 9.95 l1.05 1.75 -1.35 -0.05 c-0.90 -0.05 -2.05 -0.75 -3.45 -2.25z"/>
  <path d="M34.55 341.90 c-3.75 -11.85 -7.15 -26.20 -8.55 -36.15 -1.25 -8.75 -1.60 -11.75 -2.25 -19.75 -3.05 -36.25 3.40 -76.80 17.60 -111 5 -12.10 13.50 -28.10 22.20 -41.90 1 -1.60 1.45 -1.35 1.45 0.85 0 1.30 -0.35 2.30 -1.20 3.20 -0.70 0.75 -1.30 1.70 -1.40 2.20 -0.10 0.50 -0.65 0.95 -1.30 1.05 -0.90 0.15 -1.10 0.50 -1.10 1.90 0 1.10 -0.30 1.85 -0.75 2 -0.40 0.20 -0.75 0.75 -0.75 1.30 0 0.55 -0.40 1.10 -1 1.25 -0.65 0.20 -1 0.70 -1 1.50 0 1.40 -1.30 4.15 -2 4.15 -0.30 0 -0.50 0.45 -0.50 1 0 0.55 -0.20 1 -0.50 1 -0.25 0 -0.50 0.45 -0.50 1 0 0.55 -0.35 1 -0.75 1 -0.45 0 -0.75 0.45 -0.75 1.15 0 0.65 -1.35 3.85 -3 7.10 -1.65 3.25 -3 6.20 -3 6.60 0 0.35 -0.45 1.10 -1 1.65 -0.55 0.55 -1 1.50 -1 2.15 0 0.65 -0.20 1.35 -0.40 1.60 -0.20 0.30 -0.70 1.40 -1.05 2.50 -0.40 1.10 -1.10 2.90 -1.60 4 -0.95 2.20 -4.15 11.55 -5.25 15.50 -2 7.10 -4.35 16.25 -4.70 18.25 -0.25 1.25 -0.70 3.40 -1 4.75 -0.25 1.40 -0.75 3.80 -1 5.40 -0.30 1.55 -0.75 4.25 -1.05 6 -2.35 14 -3.15 44.25 -1.45 57.10 0.30 2.20 0.75 5.90 1.05 8.25 0.95 7.65 2.55 16.30 4.25 23.20 0.65 2.70 1.20 5.55 1.20 6.35 0 0.75 0.20 1.45 0.40 1.55 0.25 0.10 1.15 2.85 2.05 6.15 0.90 3.30 1.85 6.40 2.10 6.85 0.70 1.40 0.55 4.40 -0.25 4.40 -0.40 0 -1.25 -1.95 -2.25 -5.10z"/>
  <path d="M192.95 325.40 c-0.30 -2.15 -0.35 -7.85 -0.15 -9 0.15 -0.80 0.60 -1.40 1 -1.40 0.55 0 0.70 1.10 0.70 5.50 0 4.55 -0.15 5.50 -0.75 5.50 -0.40 0 -0.80 -0.30 -0.80 -0.60z"/>
  <path d="M294 302.50 c0 -18.40 0.10 -22 0.70 -22 0.35 0 0.80 0.50 1 1.15 0.40 1.45 0.40 40.25 0 41.75 -0.20 0.60 -0.65 1.10 -1 1.10 -0.60 0 -0.70 -3.60 -0.70 -22z"/>
  <path d="M261.35 320.40 c-0.35 -1.50 -0.35 -50.30 0 -51.75 0.15 -0.65 0.55 -1.15 0.95 -1.15 0.60 0 0.70 4.25 0.70 27 0 22.75 -0.10 27 -0.70 27 -0.40 0 -0.80 -0.50 -0.95 -1.10z"/>
  <path d="M192.75 305 c-0.45 -2 0.15 -4.50 1.05 -4.50 0.50 0 0.70 0.75 0.70 3 0 2.25 -0.20 3 -0.70 3 -0.40 0 -0.85 -0.65 -1.05 -1.50z"/>
  <path d="M192.80 289.40 c-0.40 -1.50 -0.40 -35.30 0 -36.75 0.20 -0.65 0.65 -1.15 1 -1.15 0.60 0 0.70 3.25 0.70 19.50 0 16.25 -0.10 19.50 -0.70 19.50 -0.35 0 -0.80 -0.50 -1 -1.10z"/>
  <path d="M261.25 262.05 c-0.35 -1.60 -0.30 -7.45 0.10 -9.65 0.10 -0.80 0.55 -1.40 0.95 -1.40 0.55 0 0.70 1.20 0.70 6.25 0 5.05 -0.15 6.25 -0.70 6.25 -0.40 0 -0.85 -0.65 -1.05 -1.45z"/>
  <path d="M261.60 237.90 c0.15 -13.30 0.40 -14.35 4.60 -18.80 2.75 -2.95 5.85 -4.55 9.95 -5.10 9.85 -1.40 19.35 6.60 19.35 16.35 0 2.25 -0.15 2.65 -0.95 2.65 -0.80 0 -0.95 -0.45 -1.15 -3.20 -0.15 -2.80 -0.45 -3.60 -2.20 -6.15 -3.80 -5.45 -10.80 -8.90 -15.45 -7.60 -4.25 1.20 -7.40 3.65 -10.20 7.95 l-1.80 2.75 -0.15 11.40 c-0.15 10.95 -0.20 11.35 -1.15 11.35 -1 0 -1 -0.30 -0.85 -11.60z"/>
  <path d="M192.80 246.30 c-0.35 -1.50 -0.35 -48.15 0.05 -49.65 0.15 -0.65 0.55 -1.15 0.95 -1.15 0.60 0 0.70 4.10 0.70 26 0 21.90 -0.10 26 -0.70 26 -0.40 0 -0.85 -0.55 -1 -1.20z"/>
  <path d="M155.50 229.95 c0 -3.15 -1.65 -6.55 -4.65 -9.55 -2.55 -2.60 -3.25 -3 -6.35 -3.80 -2.80 -0.65 -3.50 -1.05 -3.50 -1.80 0 -0.80 0.30 -0.90 2.40 -0.70 7.15 0.75 13.40 7.20 14 14.55 0.20 2.65 0.15 2.85 -0.85 2.85 -0.85 0 -1.05 -0.30 -1.05 -1.55z"/>
  <path d="M124.20 228.20 c0.45 -3.25 1.90 -6.30 4.30 -8.90 3.75 -4.05 11.50 -6.95 11.50 -4.30 0 0.60 -0.35 1 -0.85 1 -1.35 0 -5.70 2.15 -7.60 3.80 -2.35 1.95 -4.85 6.05 -5.30 8.60 -0.25 1.65 -0.55 2.10 -1.35 2.10 -0.95 0 -1 -0.20 -0.70 -2.30z"/>
  <path d="M94.50 222.35 c0 -1.20 0.20 -2.35 0.45 -2.60 0.25 -0.30 0.55 -1.05 0.65 -1.75 0.10 -0.90 0.50 -1.30 1.45 -1.40 l1.35 -0.15 -1.30 4 c-1.50 4.50 -2.60 5.35 -2.60 1.90z"/>
  <path d="M97.50 213.75 c0 -0.95 0.20 -2.15 0.45 -2.65 0.25 -0.45 0.60 -1.25 0.75 -1.70 0.15 -0.55 0.75 -0.90 1.55 -0.90 l1.25 0 -1.05 2.65 c-0.60 1.40 -1.20 3 -1.30 3.50 -0.50 1.60 -1.65 0.95 -1.65 -0.90z"/>
  <path d="M100.50 206 c0 -2.05 0.65 -2.75 2.20 -2.40 0.65 0.15 0.65 0.45 -0.20 2.30 -1.20 2.65 -2 2.70 -2 0.10z"/>
  <path d="M104 198.75 c0 -2.15 2.70 -7.75 3.75 -7.75 0.50 0 0.75 -0.50 0.75 -1.50 0 -0.85 0.45 -1.95 1 -2.50 0.55 -0.55 1 -1.35 1 -1.75 0 -0.45 0.35 -0.90 0.75 -1.05 0.40 -0.20 0.75 -0.60 0.75 -1 0 -0.40 0.25 -0.70 0.50 -0.70 0.30 0 0.50 -0.45 0.50 -1 0 -0.55 0.35 -1.15 0.75 -1.30 0.40 -0.20 0.75 -0.65 0.75 -1 0 -0.80 2.45 -4.70 2.95 -4.70 0.15 0 0.60 -0.70 1 -1.55 0.40 -0.90 1.10 -1.70 1.60 -1.80 0.55 -0.15 0.95 -0.70 0.95 -1.20 0 -1.20 5.80 -8.45 6.75 -8.45 0.40 0 0.75 -0.45 0.75 -0.95 0 -0.50 0.80 -1.65 1.75 -2.50 0.95 -0.85 1.75 -1.70 1.75 -1.95 0 -0.20 1.20 -1.60 2.70 -3.05 2.15 -2.10 2.95 -2.60 4.05 -2.45 1.40 0.15 1.30 0.25 -3 4.90 -12.25 13.25 -21.15 25.90 -28.45 40.45 -1.30 2.50 -2.55 4.55 -2.80 4.55 -0.30 0 -0.50 -0.80 -0.50 -1.75z"/>
  <path d="M441 194.20 c-5.20 -0.70 -15.50 -5.15 -15.50 -6.75 0 -0.80 3.50 -0.50 3.80 0.30 0.20 0.40 0.60 0.75 1 0.75 0.35 0 1.85 0.55 3.30 1.20 5 2.25 6.80 2.55 14.05 2.50 5.15 -0.05 6.85 0.10 6.85 0.55 0 0.35 -0.50 0.75 -1.10 0.95 -1.60 0.40 -10.30 0.75 -12.40 0.50z"/>
  <path d="M458.10 191.15 c0.10 -1.05 0.45 -1.45 1.40 -1.55 0.70 -0.10 1.45 -0.50 1.65 -0.90 0.45 -0.75 4.35 -1 4.35 -0.30 0 0.45 -3.85 2.70 -6.15 3.55 -1.35 0.55 -1.40 0.50 -1.25 -0.80z"/>
  <path d="M467 186.10 c0 -1.10 0.65 -2.05 2.65 -3.95 1.40 -1.40 3 -3.15 3.45 -3.95 0.75 -1.35 3.40 -2.40 3.40 -1.35 0 1.35 -5.35 7.75 -8.05 9.70 l-1.45 1 0 -1.45z"/>
  <path d="M420.85 184 c-1.90 -1.75 -6.85 -7.45 -11.05 -12.70 -4.20 -5.25 -9.50 -11.70 -11.75 -14.30 -4 -4.60 -4.10 -4.75 -2.80 -4.90 0.95 -0.15 1.80 0.25 2.80 1.20 0.80 0.75 1.45 1.60 1.45 1.85 0 0.20 0.70 1 1.50 1.70 0.85 0.65 1.50 1.45 1.50 1.75 0 0.30 0.55 0.95 1.25 1.50 0.70 0.55 1.25 1.25 1.25 1.55 0 0.35 0.45 0.90 1 1.25 0.55 0.35 1 0.90 1 1.25 0 0.35 0.45 0.90 1 1.25 0.55 0.35 1 0.90 1 1.25 0 0.35 0.45 0.90 1 1.25 0.55 0.35 1 0.80 1 1.05 0 0.20 0.80 1.25 1.75 2.25 0.95 1.05 1.75 2.15 1.75 2.45 0 0.35 0.45 0.90 1 1.25 0.55 0.35 1 1.05 1 1.60 0 0.55 0.30 1 0.65 1 0.35 0 2.15 1.55 4.05 3.45 2.80 2.85 3.35 3.65 3.20 4.85 l-0.15 1.40 -3.40 -3.20z"/>
  <path d="M476.60 172.90 c0.10 -1.80 0.35 -2.20 1.30 -2.30 1.35 -0.20 1.45 0.80 0.35 2.90 -1.10 2.15 -1.85 1.85 -1.65 -0.60z"/>
  <path d="M477.85 164.15 c-0.30 -5.95 -1.60 -10.50 -5.35 -18.20 -1.10 -2.30 -2 -4.45 -2 -4.80 0 -0.35 -0.20 -0.65 -0.45 -0.65 -0.25 0 -1.50 -1.80 -2.80 -4.05 -1.30 -2.20 -3.95 -6.15 -5.80 -8.75 -1.90 -2.60 -3.45 -5.20 -3.45 -5.70 0 -0.55 -0.30 -1 -0.70 -1 -1.15 0 -1.85 -1.35 -1.70 -3.35 l0.15 -1.90 3.55 4.75 c10.10 13.60 16.35 24.55 19.15 33.75 1.85 5.85 2.05 15.25 0.35 15.25 -0.50 0 -0.75 -1.40 -0.95 -5.35z"/>
  <path d="M385.65 144.45 c-1.70 -1.50 -3.10 -2.85 -3.10 -3.05 -0.05 -0.25 0.70 -0.40 1.60 -0.40 2.25 0 5 2.75 4.75 4.75 l-0.15 1.35 -3.10 -2.65z"/>
  <path d="M377.95 137.65 c-1.30 -1.05 -3.40 -2.70 -4.65 -3.65 -1.25 -0.95 -2.25 -1.90 -2.30 -2.10 0 -0.25 0.75 -0.40 1.65 -0.40 1.20 0 2.20 0.50 3.55 1.75 1.05 0.95 2.10 1.75 2.30 1.75 0.85 0 2.05 2 1.90 3.20 l-0.15 1.35 -2.30 -1.90z"/>
  <path d="M154 136.65 c0 -0.80 0.25 -1.70 0.60 -2.05 0.65 -0.65 3.90 -0.85 3.90 -0.20 0 0.25 -1 1.15 -2.25 2.05 l-2.25 1.60 0 -1.40z"/>
  <path d="M364.90 128.10 c-1.60 -1 -2.90 -2 -2.90 -2.20 0 -0.25 0.80 -0.40 1.80 -0.40 2.30 0 4.70 1.65 4.70 3.30 0 0.65 -0.15 1.20 -0.35 1.20 -0.25 -0.05 -1.70 -0.85 -3.25 -1.90z"/>
  <path d="M168 126.55 c0 -0.95 0.40 -1.70 1.25 -2.25 1.20 -0.80 4.75 -1.10 4.75 -0.40 0 0.20 -1.35 1.20 -3 2.25 l-3 1.85 0 -1.45z"/>
  <path d="M354.65 121.75 c-3.40 -1.90 -6.15 -3.65 -6.15 -3.85 0 -0.25 0.80 -0.40 1.75 -0.40 1.90 0 4.75 1.20 4.75 2 0 0.30 0.45 0.50 1 0.50 0.55 0 1.45 0.45 2 1 0.55 0.55 1.35 1 1.75 1 0.90 0 1.40 1 1.15 2.35 -0.15 0.75 -1.05 0.40 -6.25 -2.60z"/>
  <path d="M69.85 124.40 c4 -5.45 5.90 -7.90 6.25 -7.90 0.20 0 0.40 0.75 0.40 1.65 0 1.65 -1.20 3.35 -2.40 3.35 -0.35 0 -0.60 0.50 -0.60 1.15 0 1.55 -0.90 2.35 -2.65 2.35 -1.10 0 -1.35 -0.15 -1 -0.60z"/>
  <path d="M178 120.25 c0 -1 0.50 -1.50 2.50 -2.50 2.45 -1.25 6 -1.70 6 -0.75 0 0.40 -7.45 4.50 -8.25 4.50 -0.15 0 -0.25 -0.55 -0.25 -1.25z"/>
  <path d="M341.50 114.95 c-12.75 -5.95 -27.10 -10.60 -41.35 -13.40 -11.05 -2.20 -17.75 -2.75 -34 -2.75 -14 -0.05 -15.65 -0.15 -15.65 -0.85 0 -2.40 32.05 -1.65 47.25 1.10 6.20 1.10 18.90 4.05 21.65 5 1.55 0.60 4.05 1.35 5.55 1.75 1.50 0.40 3.40 1.05 4.25 1.40 0.85 0.40 3.45 1.40 5.80 2.30 2.35 0.90 5.50 2.25 7 3 1.50 0.80 3.35 1.65 4.15 1.95 0.95 0.40 1.35 0.90 1.35 1.80 0 0.70 -0.15 1.25 -0.35 1.20 -0.25 0 -2.75 -1.15 -5.65 -2.50z"/>
  <path d="M187.10 115.70 c0.15 -1.30 0.35 -1.45 2.30 -1.60 1.40 -0.10 2.10 -0.40 2.10 -0.85 0 -0.90 1.55 -1.75 3.15 -1.75 0.70 0 1.35 -0.35 1.55 -0.75 0.15 -0.40 0.70 -0.75 1.25 -0.75 0.55 0 1.15 -0.20 1.30 -0.50 0.15 -0.25 1.05 -0.50 2 -0.50 1 0 1.75 -0.30 1.95 -0.75 0.15 -0.40 0.70 -0.75 1.25 -0.75 0.55 0 1.15 -0.20 1.30 -0.50 0.45 -0.75 4.25 -0.65 4.25 0.15 0 0.35 -2.30 1.50 -5.10 2.55 -2.85 1.05 -7.60 3.05 -10.65 4.40 -3 1.35 -5.80 2.60 -6.15 2.75 -0.50 0.20 -0.65 -0.10 -0.50 -1.15z"/>
  <path d="M77.55 114.15 c4.90 -6.20 9.80 -11.55 18.20 -19.95 22.65 -22.55 45.75 -38 76.75 -51.20 22.20 -9.50 54.70 -17.05 78.65 -18.30 6.25 -0.35 6.35 -0.35 6.35 0.70 0 1 -0.25 1.10 -3.35 1.10 -10.35 0 -39.20 4.90 -53.90 9.10 -3.05 0.85 -16.80 5.40 -18.50 6.10 -0.80 0.35 -2.30 0.95 -3.25 1.30 -0.95 0.35 -2.75 1.10 -4 1.65 -1.25 0.55 -3.05 1.35 -4 1.75 -0.95 0.45 -2.55 1.15 -3.55 1.70 -1 0.50 -2.40 0.90 -3.15 0.90 -0.70 0 -1.30 0.20 -1.30 0.40 0 0.75 -9.35 5.10 -10.95 5.10 -1.20 0 -1.55 0.20 -1.55 1 0 0.95 -2.25 2.50 -3.65 2.50 -0.40 0 -0.85 0.35 -1.05 0.75 -0.15 0.40 -0.70 0.75 -1.25 0.75 -0.50 0 -1.05 0.35 -1.25 0.75 -0.15 0.40 -0.65 0.75 -1.10 0.75 -0.45 0 -1.10 0.30 -1.40 0.65 -0.30 0.40 -4.15 3.05 -8.55 5.95 -7.95 5.25 -13.45 9.50 -21.95 16.80 -2.40 2.15 -4.80 4.05 -5.25 4.30 -1.15 0.70 -19 19.45 -22.05 23.20 -2.10 2.60 -2.80 3.10 -4.10 3.10 -1.35 0 -1.45 -0.10 -0.85 -0.85z"/>
  <path d="M445.10 107.15 c-3.30 -3.80 -7.05 -7.90 -8.30 -9.15 -1.40 -1.35 -2.30 -2.65 -2.30 -3.35 0 -0.90 -0.30 -1.15 -1.25 -1.15 -0.95 0 -2.90 -1.45 -6.90 -5.10 -8.30 -7.55 -17 -14.30 -26.30 -20.50 -4.55 -3.05 -8.55 -5.85 -8.85 -6.20 -0.30 -0.40 -0.80 -0.70 -1.10 -0.70 -0.75 0 -4.10 -2 -4.10 -2.50 0 -0.20 -0.70 -0.50 -1.55 -0.70 -0.95 -0.20 -1.65 -0.65 -1.80 -1.30 -0.15 -0.65 -0.70 -1 -1.40 -1 -1.75 0 -14.25 -6.35 -14.25 -7.25 0 -0.55 -0.50 -0.75 -1.80 -0.75 -1 0 -2.75 -0.45 -3.90 -1.05 -4.05 -2.05 -4.90 -2.45 -5.35 -2.45 -0.25 0 -1.40 -0.45 -2.60 -0.95 -1.15 -0.55 -3.30 -1.35 -4.70 -1.80 -1.45 -0.45 -2.75 -1.05 -2.90 -1.30 -0.20 -0.25 -0.80 -0.45 -1.45 -0.45 -0.60 0 -1.30 -0.20 -1.60 -0.45 -0.25 -0.25 -1 -0.55 -1.70 -0.65 -0.85 -0.10 -1.30 -0.50 -1.40 -1.25 -0.20 -1.50 0.15 -1.45 5.60 0.40 11.20 3.85 25.75 10.35 37.65 16.80 8.40 4.60 25.05 15.55 32.15 21.15 11.50 9.10 26.30 23.10 33.55 31.75 6.20 7.40 5.80 6.75 4.10 6.75 -1.30 0 -2.30 -0.90 -7.55 -6.85z"/>
  <path d="M214.50 104.80 c0 -1.15 0.20 -1.30 1.75 -1.30 0.95 0 1.75 -0.20 1.75 -0.50 0 -0.25 0.90 -0.50 2 -0.50 1.10 0 2 -0.20 2 -0.50 0 -0.25 1 -0.50 2.25 -0.50 1.55 0 2.25 0.20 2.25 0.65 0 0.45 -1.90 1.20 -5.35 2.10 -3 0.75 -5.70 1.50 -6 1.60 -0.45 0.15 -0.65 -0.20 -0.65 -1.05z"/>
  <path d="M227.50 101.65 c0 -1.10 3.20 -2.15 6.50 -2.15 2.90 0 2.65 1.30 -0.35 1.90 -5.95 1.25 -6.15 1.30 -6.15 0.25z"/>
  <path d="M241.50 99.10 c0 -0.75 0.45 -1.05 1.90 -1.30 3.35 -0.55 6.10 -0.35 6.10 0.40 0 0.80 -0.95 1.05 -5.10 1.55 -2.65 0.35 -2.90 0.30 -2.90 -0.65z"/>
  <path d="M332.90 36.15 c-0.50 -0.10 -0.90 -0.40 -0.90 -0.60 0 -0.25 -1.15 -0.55 -2.50 -0.70 -3.05 -0.35 -3.50 -0.60 -3.50 -1.90 0 -1.25 0.10 -1.25 6.55 0.65 3.45 1 5.45 1.80 5.45 2.25 0 0.65 -3.10 0.85 -5.10 0.30z"/>
  <path d="M317.15 32.15 c-0.85 -0.15 -1.15 -0.55 -1.15 -1.45 0 -0.95 0.20 -1.20 0.90 -1.05 0.45 0.15 2.05 0.55 3.50 0.85 3.45 0.80 3.60 2.05 0.25 1.95 -1.35 -0.05 -2.90 -0.20 -3.50 -0.30z"/>
  <path d="M304.40 29.60 c-4.10 -0.70 -4.40 -0.80 -4.40 -1.90 0 -1 0.20 -1.20 1.15 -1 0.60 0.15 2.40 0.50 4 0.80 7.40 1.30 8.35 1.60 8.35 2.30 0 0.90 -3.20 0.85 -9.10 -0.20z"/>
  <path d="M287.25 27.20 c-3 -0.30 -8.15 -0.65 -11.35 -0.65 -5.70 -0.05 -5.90 -0.10 -5.90 -1.15 0 -1.05 0.05 -1.05 8.40 -0.75 7.50 0.30 14.40 0.90 19 1.65 0.95 0.15 1.60 0.55 1.60 0.95 0 0.90 -3.65 0.90 -11.75 -0.05z"/>
 </g>
 <g fill="#ffffff">
  <path d="M275.50 508.50 c0 -0.25 0.80 -0.50 1.75 -0.50 0.95 0 1.75 0.25 1.75 0.50 0 0.30 -0.80 0.50 -1.75 0.50 -0.95 0 -1.75 -0.20 -1.75 -0.50z"/>
  <path d="M281.05 507.80 c-0.50 -0.60 -0.10 -0.75 2.55 -1.05 3.95 -0.40 6 -0.20 6.30 0.70 0.15 0.50 -0.30 0.60 -1.95 0.45 -1.20 -0.15 -2.60 -0.40 -3.05 -0.60 -0.65 -0.30 -0.90 -0.20 -0.90 0.40 0 1 -2.15 1.10 -2.95 0.10z"/>
  <path d="M332.10 444.40 l0.15 -55.65 1.40 -2.85 c1.60 -3.30 5.45 -6.80 8.85 -8.05 2.45 -0.90 10.20 -1.20 10.70 -0.40 0.15 0.20 0.90 0.55 1.65 0.70 1.80 0.35 6.90 4.95 7.90 7 2.15 4.65 2.10 3.75 2.20 46.25 0.10 36.55 0.05 40.60 -0.65 40.60 -0.65 0 -0.80 -0.85 -0.90 -5.10 -0.05 -2.85 -0.05 -5.90 0.05 -6.75 0.10 -1.80 -1.15 -4.15 -2.25 -4.15 -0.40 0 -0.70 -0.35 -0.70 -0.75 0 -0.35 -0.40 -0.95 -0.85 -1.20 -0.50 -0.30 -0.60 -0.55 -0.25 -0.55 1.40 0 0.50 -1.50 -1.25 -1.95 -2.45 -0.70 -6.15 -0.70 -6.15 0 0 0.30 -0.35 0.15 -0.80 -0.25 -0.85 -0.90 -2.10 -1 -4.75 -0.35 -1.65 0.40 -1.80 0.35 -1.55 -0.60 0.20 -0.85 0.05 -0.95 -1.10 -0.75 -1.10 0.25 -1.20 0.15 -0.70 -0.50 0.55 -0.65 0.50 -0.70 -0.45 -0.20 -1 0.55 -1.05 0.50 -0.80 -1.40 0.35 -2.35 -0.40 -2.65 -2.50 -1 -0.70 0.55 -1.75 1 -2.35 1 -0.85 0 -1.05 0.20 -0.85 1 0.15 0.55 0.05 1.15 -0.20 1.30 -0.25 0.15 -0.45 -0.15 -0.45 -0.60 0 -1.50 -0.95 -0.10 -1.15 1.70 -0.10 0.90 -0.35 1.75 -0.50 1.95 -0.65 0.60 -0.35 1.30 0.30 0.75 0.50 -0.40 0.60 -0.10 0.45 1.45 -0.10 1.05 -0.40 1.95 -0.65 1.95 -0.30 0 -0.30 0.35 -0.05 0.90 0.60 1.10 0.30 9.45 -0.45 13 -0.80 3.90 -0.80 18.20 0 26.55 0 0.35 0.35 0.55 0.80 0.40 0.40 -0.20 0.85 -0.10 1.05 0.20 0.45 0.80 -0.80 1.95 -2.10 1.95 l-1.20 0 0.10 -55.60z m20.05 5.75 c-0.35 -0.10 -0.65 -0.65 -0.65 -1.20 0 -0.50 -0.20 -0.95 -0.50 -0.95 -0.25 0 -0.50 -0.45 -0.50 -0.95 0 -1.20 -0.60 -1.60 -1.45 -1.05 -0.40 0.25 -0.55 0.80 -0.35 1.30 0.30 0.90 0.25 0.90 -0.40 0.10 -0.90 -1.20 -2.40 -1.15 -3.15 0.10 -0.55 0.80 -0.50 0.90 0.05 0.70 0.40 -0.15 1.20 0.15 1.75 0.65 1.05 0.90 2.95 1.50 4.80 1.55 0.55 0 0.70 -0.10 0.40 -0.25z m-4.65 -4.90 c0 -0.40 -0.20 -0.75 -0.45 -0.75 -0.25 0 -0.55 0.35 -0.75 0.75 -0.15 0.45 0 0.75 0.45 0.75 0.40 0 0.75 -0.35 0.75 -0.75z m5.20 -1.70 c0.80 -0.30 1.75 -0.50 2.15 -0.35 0.35 0.15 0.65 -0.05 0.65 -0.50 0 -0.55 -0.40 -0.70 -1.60 -0.50 -3.50 0.55 -7.65 0.75 -6.40 0.35 l1.25 -0.45 -1.35 -0.05 c-0.90 -0.05 -1.40 0.20 -1.40 0.65 0 1.10 0.75 1.35 2.15 0.85 0.95 -0.35 1.35 -0.30 1.55 0.20 0.25 0.75 0.80 0.70 3 -0.20z m1.05 -4.55 c0 -1.05 -3.05 -1.30 -4 -0.30 -0.95 0.90 -0.20 1.30 2.25 1.15 1.20 -0.05 1.75 -0.35 1.75 -0.85z"/>
  <path d="M346.30 494.75 c-0.20 -0.55 0.15 -0.95 1.05 -1.30 2.20 -0.80 4.65 -0.80 4.65 0.05 0 0.35 -0.70 0.45 -1.85 0.25 -1.45 -0.25 -1.70 -0.20 -1.15 0.20 0.65 0.50 0.65 0.60 0 1.05 -1.10 0.70 -2.35 0.60 -2.70 -0.25z"/>
  <path d="M351.75 491.90 c0.55 -0.35 1.45 -0.95 2 -1.30 1.80 -1.10 3.05 -1.50 5.25 -1.70 2.90 -0.20 2.95 0.60 0.10 2 -1.75 0.80 -2.85 1 -4.20 0.80 -1.25 -0.20 -1.90 -0.15 -1.90 0.25 0 0.30 -0.50 0.55 -1.10 0.55 -1.10 0 -1.10 0 -0.15 -0.60z"/>
  <path d="M193.05 410.95 c0 -36.70 0.15 -67.60 0.35 -68.70 0.35 -1.95 0.45 -2 2.50 -2.15 l2.10 -0.15 0 3.45 c0 1.90 0.15 3.60 0.30 3.75 0.45 0.45 3.20 -3.10 3.20 -4.15 0 -1.30 1.25 -2.10 3.10 -1.90 1.55 0.15 1.65 0.30 1.90 2.40 l0.25 2.25 0.75 -1.50 c0.55 -1.10 1.20 -1.55 2.25 -1.65 0.85 -0.10 1.70 -0.40 2 -0.65 0.25 -0.25 1.40 -0.45 2.60 -0.45 1.20 0 2.15 -0.20 2.15 -0.50 0 -0.25 0.75 -0.50 1.70 -0.50 1.50 0 1.75 0.20 1.95 1.40 0.10 0.75 0.25 -0.15 0.30 -2 l0.05 -3.40 1.95 0 c1.10 0 2.10 0.15 2.20 0.40 0.15 0.20 0.40 2.55 0.60 5.25 l0.35 4.85 -1.80 0 c-1.60 0 -1.80 0.15 -1.80 1.25 0 0.90 0.25 1.25 0.95 1.25 1.55 0 2.10 1.20 1.95 4.35 -0.15 2.55 -0.30 2.90 -1.25 3.05 -1.10 0.15 -1.25 0.40 -1.90 3.75 -0.10 0.65 0.20 0.85 1.50 0.85 1.50 0 1.65 0.15 1.95 1.90 0.20 1 0.45 23.50 0.60 50 0.30 44 0.25 48.10 -0.50 48.10 -0.65 0 -0.80 -0.60 -0.80 -3.05 0 -1.65 -0.20 -2.90 -0.45 -2.75 -0.25 0.15 -0.60 -0.05 -0.75 -0.50 -0.15 -0.40 -0.10 -0.65 0.15 -0.50 0.25 0.15 0.45 -0.75 0.45 -2 0.05 -2.35 -0.70 -4.20 -1.75 -4.20 -0.90 0 -1.25 1.85 -0.55 2.95 0.80 1.35 1.40 1.35 1.40 0 0 -0.55 -0.20 -0.85 -0.50 -0.70 -0.25 0.15 -0.50 0.05 -0.50 -0.25 0 -1.05 1.25 -0.20 1.40 0.90 0.10 0.70 -0.15 1.25 -0.65 1.40 -0.65 0.30 -0.70 0.40 -0.15 0.75 0.50 0.35 0.50 0.45 0 0.45 -0.35 0 -0.90 -0.55 -1.20 -1.25 -0.45 -0.95 -0.95 -1.25 -2.20 -1.25 -0.90 0 -1.95 0.35 -2.40 0.75 -1 1 -1.30 0.95 -1.30 -0.25 0 -0.55 0.35 -1.15 0.75 -1.30 1.50 -0.60 0.70 -1.10 -2.25 -1.45 -1.65 -0.20 -3.15 -0.55 -3.30 -0.80 -0.50 -0.85 -1.60 -0.45 -1.35 0.50 0.45 1.85 -3.40 2 -4.10 0.15 -0.25 -0.65 -0.15 -0.70 0.30 -0.25 0.75 0.75 1.95 0.25 1.95 -0.80 0 -0.60 -0.40 -0.85 -1.35 -0.80 -0.95 0 -1.45 -0.30 -1.55 -0.95 -0.15 -0.70 0 -0.85 0.65 -0.60 0.45 0.15 1.30 0.05 1.90 -0.30 0.60 -0.35 1.45 -0.55 1.80 -0.45 0.65 0.10 0.65 0 0.10 -0.65 -0.40 -0.45 -1.10 -0.80 -1.60 -0.80 -0.55 0 -0.95 -0.20 -0.95 -0.40 0 -0.35 -2.85 -1.60 -3.70 -1.60 -0.20 0 -0.20 0.30 0.05 0.65 0.60 1 0.70 2.45 0.10 2.10 -0.30 -0.20 -0.40 -0.65 -0.25 -1.05 0.40 -1 -1.05 -1.45 -2 -0.65 -0.40 0.35 -0.70 1.15 -0.60 1.85 0.10 1.05 -0.15 1.35 -1.55 1.85 -0.95 0.30 -1.85 0.90 -1.95 1.30 -0.10 0.40 -0.55 1.45 -0.95 2.35 -0.45 0.85 -0.65 2.05 -0.50 2.60 0.15 0.55 0.05 0.90 -0.20 0.70 -0.75 -0.45 -0.50 0.90 0.40 1.90 0.75 0.85 0.75 0.95 -0.05 1.85 -0.90 1 -1.05 3.35 -0.65 11.05 0.15 2.05 0.05 4.10 -0.15 4.50 -0.25 0.40 -0.55 1.65 -0.70 2.70 -0.20 1.10 -0.45 2.10 -0.55 2.25 -0.15 0.10 -0.25 -29.80 -0.20 -66.50z m27.95 36.80 c0 -0.80 -0.30 -1.25 -0.75 -1.25 -0.40 0 -0.75 0.25 -0.75 0.50 0 0.30 0.25 0.50 0.50 0.50 0.30 0 0.50 0.35 0.50 0.75 0 0.40 0.10 0.75 0.25 0.75 0.15 0 0.25 -0.55 0.25 -1.25z m-5 -0.05 c0 -0.45 -0.35 -0.70 -0.85 -0.60 -1.25 0.25 -1.40 1.40 -0.20 1.40 0.60 0 1.05 -0.30 1.05 -0.80z m5 -2.45 c0 -0.40 -0.35 -0.75 -0.75 -0.75 -0.40 0 -0.75 0.35 -0.75 0.75 0 0.40 0.35 0.75 0.75 0.75 0.40 0 0.75 -0.35 0.75 -0.75z m-9.60 -4.60 c0.10 -0.40 -0.25 -0.65 -0.85 -0.65 -0.60 0 -1.05 -0.25 -1.05 -0.50 0 -0.30 -0.60 -0.75 -1.30 -1 -0.70 -0.30 -1.15 -0.70 -0.95 -0.95 0.15 -0.25 0 -0.65 -0.35 -0.85 -0.35 -0.20 -0.50 -0.20 -0.30 0.05 0.20 0.20 0.05 0.85 -0.35 1.45 -1 1.35 -0.95 1.85 0.10 1.45 0.50 -0.20 0.70 -0.10 0.45 0.25 -0.15 0.30 -0.05 0.70 0.25 0.90 0.40 0.20 0.45 0.15 0.25 -0.20 -0.50 -0.85 0.30 -0.75 1.50 0.15 1.10 0.85 2.25 0.80 2.60 -0.10z m-8.90 -11.65 c0 -0.25 -0.35 -0.50 -0.75 -0.50 -0.40 0 -0.75 0.25 -0.75 0.50 0 0.30 0.35 0.50 0.75 0.50 0.40 0 0.75 -0.20 0.75 -0.50z m-1.50 -69.45 c0.75 -1.50 0.65 -3.55 -0.25 -3.55 -0.50 0 -0.75 -0.55 -0.75 -1.75 0 -1.20 -0.25 -1.75 -0.75 -1.75 -0.60 0 -0.75 0.80 -0.75 4 0 3.65 0.10 4 1 4 0.50 0 1.20 -0.45 1.50 -0.95z m21 -13.80 c0 -0.40 -0.35 -0.75 -0.75 -0.75 -1.30 0 -0.90 1 0.65 1.45 0.05 0.05 0.10 -0.30 0.10 -0.70z"/>
  <path d="M363.50 476 c0 -0.25 0.35 -0.50 0.75 -0.50 0.40 0 0.75 0.25 0.75 0.50 0 0.30 -0.35 0.50 -0.75 0.50 -0.40 0 -0.75 -0.20 -0.75 -0.50z"/>
  <path d="M261.95 471.50 c-0.15 -1.50 -0.30 -32.50 -0.35 -68.85 -0.10 -65.95 -0.10 -66.15 0.90 -66.15 0.90 0 1 0.35 1 2.95 l0 3 1.90 0.15 c1.75 0.15 1.85 0.25 2 2 0.20 2.60 -0.60 3.90 -2.40 3.90 l-1.50 0 0 3.10 c0 3 0 3.05 1 2.15 0.65 -0.60 1.50 -0.80 2.70 -0.65 1.45 0.15 1.80 0.05 1.90 -0.85 0.10 -0.65 0.60 -1.05 1.55 -1.15 1.25 -0.15 1.35 -0.30 1.35 -2.65 0 -1.35 0.25 -2.45 0.50 -2.45 0.30 0 0.50 -0.35 0.50 -0.75 0 -0.40 0.35 -0.75 0.75 -0.75 0.45 0 0.75 -0.45 0.75 -1.25 0 -0.80 0.30 -1.25 0.75 -1.25 0.40 0 0.75 -0.35 0.75 -0.75 0 -0.60 0.80 -0.75 4.25 -0.75 3.90 0 4.25 0.10 4.25 1 0 0.55 0.25 1 0.50 1 0.30 0 0.50 -0.65 0.50 -1.50 0 -1.40 0.15 -1.50 1.80 -1.50 2.10 0 3.20 0.95 3.20 2.70 0 1.15 0.20 1.30 1.75 1.30 1.75 0 1.75 0 1.75 2.25 l0 2.25 -1.80 0 c-1.80 0 -1.80 0.05 -1.50 1.55 0.15 0.85 0.30 2.10 0.30 2.75 0 1 0.25 1.20 1.50 1.20 1.15 0 1.50 0.20 1.50 1 0 0.55 0.35 1 0.80 1 0.65 0 0.70 0.65 0.45 5.15 -0.20 2.80 -0.25 8.25 -0.20 12.10 0.05 3.85 0.20 22.70 0.30 41.90 0.15 30.25 0.10 34.85 -0.55 34.85 -0.40 0 -1.10 0.35 -1.50 0.80 -0.45 0.40 -0.80 0.55 -0.80 0.25 0 -0.95 -0.85 -0.60 -1.15 0.45 -0.20 0.80 -0.70 1 -2.20 1 -1.55 0.05 -1.75 0.15 -1 0.55 1.25 0.75 1.05 1.45 -0.45 1.45 -1.05 0 -1.25 0.20 -1.05 1 0.15 0.55 0.05 1 -0.20 1 -0.25 0 -0.45 -0.30 -0.45 -0.70 0 -0.40 -0.35 -0.80 -0.75 -1 -0.95 -0.35 -0.95 -1.05 0.05 -2 0.40 -0.45 0.60 -0.80 0.35 -0.80 -0.20 0 -0.05 -0.25 0.35 -0.50 0.60 -0.35 0.60 -0.60 0.10 -1.10 -1.05 -1.05 -2.75 1.15 -2.90 3.85 -0.15 2.10 -0.05 2.25 1.05 2.25 0.70 0 1.25 0.20 1.25 0.40 0 0.70 -1.95 2.30 -2.35 1.95 -0.20 -0.20 0.10 -0.70 0.65 -1.10 0.90 -0.70 0.90 -0.70 -0.25 -0.75 -1.05 0 -1.15 -0.20 -1 -1.85 0.20 -1.80 0.15 -1.90 -1.40 -2 -1.90 -0.15 -2.30 1 -0.60 1.85 0.80 0.45 0.90 0.70 0.40 1.30 -0.95 1.15 -2.75 0.70 -2.55 -0.65 0.15 -0.95 -0.10 -1.15 -1.10 -1.15 -0.95 0 -1.30 0.25 -1.30 1 0 0.55 -0.35 1 -0.75 1 -0.40 0 -0.75 -0.45 -0.75 -0.95 0 -0.50 0.35 -1.05 0.75 -1.25 0.40 -0.15 0.75 -0.65 0.75 -1.10 0 -0.55 -0.25 -0.70 -0.85 -0.45 -0.75 0.25 -0.80 0.20 -0.25 -0.30 0.95 -1 0.70 -1.60 -0.65 -1.35 -1.35 0.30 -2.70 -0.75 -1.75 -1.35 0.30 -0.20 0.45 -0.65 0.30 -1 -0.15 -0.40 0 -0.80 0.35 -0.95 0.35 -0.10 0.20 -0.25 -0.25 -0.25 -0.45 -0.05 -1.05 -0.45 -1.35 -0.90 -0.40 -0.75 -0.65 -0.80 -1.50 -0.25 -0.60 0.30 -1.35 0.60 -1.75 0.60 -0.40 0 -0.80 0.55 -0.90 1.25 -0.10 0.70 -0.35 1.20 -0.65 1.15 -0.25 -0.10 -0.45 -0.45 -0.45 -0.75 0.15 -1.05 -1 -0.75 -1.75 0.40 -0.50 0.90 -0.75 0.95 -1.10 0.40 -0.40 -0.65 -0.75 3.25 -0.55 6.30 0 0.55 0.15 3.75 0.25 7.15 0.10 3.35 0.35 6.25 0.55 6.45 0.55 0.55 0.35 1.25 -0.30 0.85 -0.40 -0.25 -0.45 0 -0.30 0.70 0.20 0.60 0.10 1.10 -0.10 1.10 -0.25 0 -0.50 0.60 -0.60 1.40 -0.10 0.85 -0.30 0.30 -0.45 -1.40z m10.30 -27.50 c0 -0.50 -0.65 -0.80 -2.10 -0.90 -1.90 -0.15 -2.15 -0.05 -2.15 0.90 0 0.95 0.25 1.05 2.15 0.90 1.45 -0.10 2.10 -0.40 2.10 -0.90z"/>
  <path d="M224.50 468.50 c0 -3.65 0.15 -4.50 0.75 -4.50 0.60 0 0.75 0.85 0.75 4.50 0 3.65 -0.15 4.50 -0.75 4.50 -0.60 0 -0.75 -0.85 -0.75 -4.50z"/>
  <path d="M128.85 467.20 c-0.20 -0.20 -0.35 -0.70 -0.35 -1.15 0 -0.55 0.15 -0.60 0.55 -0.20 0.30 0.30 0.50 0.80 0.35 1.15 -0.10 0.30 -0.35 0.40 -0.55 0.20z"/>
  <path d="M402 432.20 c0 -22.10 0.20 -35.55 0.55 -37.85 0.55 -3.80 2.60 -11.75 3.55 -13.85 0.85 -1.90 2.95 -6.05 3.95 -7.75 0.50 -0.80 1.25 -2.20 1.70 -3.05 0.45 -0.85 1.45 -2.20 2.25 -2.95 0.85 -0.80 1.50 -1.70 1.50 -2 0 -1 11.70 -12.05 15.25 -14.35 7.70 -5 14.60 -7.55 22.55 -8.25 3.75 -0.30 11.15 0.55 12.95 1.50 0.55 0.30 1.30 0.60 1.65 0.65 1.20 0.20 4.85 2.30 7.45 4.30 3.40 2.60 5.15 4.95 5.15 6.85 0 1 0.25 1.55 0.70 1.55 0.75 0 1.60 1.85 2.10 4.65 0.25 1.50 0.15 1.85 -0.50 1.85 -0.90 0 -0.90 -0.25 -1 6 -0.05 4.65 -0.10 4.85 -2.70 10.25 -1.45 3.05 -3.15 6.50 -3.75 7.75 -0.55 1.25 -1.40 2.70 -1.85 3.25 -1.25 1.45 -5.50 8.70 -5.50 9.30 0 0.50 -1.65 3.75 -3.55 6.95 -0.60 0.95 -1.90 2.80 -3 4.10 -1.05 1.30 -1.95 2.50 -1.95 2.75 0 0.20 -1.20 1.80 -2.60 3.45 -1.45 1.70 -4.20 5.05 -6.15 7.50 -5.60 7.10 -17.95 19.50 -27.55 27.65 -0.80 0.70 -3.20 2.75 -5.30 4.65 -2.10 1.85 -3.95 3.40 -4.10 3.40 -0.15 0 -2.05 1.35 -4.25 3 -3.15 2.35 -4.40 3 -5.75 3 l-1.80 0 0 -34.30z m12.90 23.20 c0.90 -0.90 0.75 -2.35 -0.25 -2.20 -0.70 0.10 -1.50 1.30 -1.60 2.45 -0.05 0.55 1.20 0.40 1.85 -0.25z m19.60 -33.05 c0 -0.25 -0.35 -0.20 -0.75 0.15 -0.40 0.35 -0.75 1 -0.75 1.45 0.05 0.65 0.15 0.65 0.75 -0.15 0.40 -0.55 0.75 -1.20 0.75 -1.45z"/>
  <path d="M126.95 465.15 c0 -0.60 -0.10 -0.65 -0.30 -0.25 -0.35 0.85 -2.15 -0.70 -2.15 -1.80 0 -0.65 0.15 -0.65 0.90 0.05 0.50 0.50 1.20 0.85 1.50 0.85 0.35 0 0.60 0.45 0.60 1 0 1.25 -0.50 1.35 -0.55 0.15z"/>
  <path d="M293.15 463.75 c-0.40 -0.45 -0.45 -0.80 -0.15 -1 0.30 -0.15 0.40 -2.10 0.25 -4.65 -0.15 -2.40 -0.05 -5.15 0.20 -6.10 l0.45 -1.75 0.05 2.40 c0.05 1.75 0.25 2.35 0.80 2.35 1.05 0 0.95 1.40 -0.10 1.65 -0.85 0.20 -0.85 0.25 0 0.30 1.10 0.05 1.20 2.55 0.10 2.55 -1.05 0 -0.95 1.40 0.15 1.65 0.80 0.20 0.80 0.25 0 0.30 -0.90 0.05 -1.10 0.50 -0.95 2.20 0.15 1 0 1.05 -0.80 0.10z"/>
  <path d="M280.65 462.65 c-1.10 -0.40 -0.70 -1.15 0.55 -1.15 0.65 0 1.30 0.35 1.50 0.75 0.25 0.75 -0.75 0.95 -2.05 0.40z"/>
  <path d="M155.55 460.55 c-0.35 -0.25 -0.55 -0.65 -0.35 -0.95 0.40 -0.70 2.30 -0.15 2.30 0.70 0 0.80 -0.90 0.90 -1.95 0.25z"/>
  <path d="M125.50 459.50 c0 -0.65 -0.25 -0.90 -0.75 -0.70 -0.65 0.25 -0.75 -4.95 -0.75 -45 0 -24.90 0.20 -45.30 0.40 -45.30 0.20 0 0.70 -1.40 1.05 -3.10 0.35 -1.75 0.85 -3.55 1.10 -4 0.70 -1.30 0.55 -3.40 -0.25 -3.40 -0.50 0 -0.75 -1.30 -1 -5 -0.35 -5.10 -0.05 -8.50 0.75 -8.50 0.25 0 0.45 -0.40 0.45 -0.90 0 -1.25 0.95 -2.10 2.35 -2.10 0.80 0 1.15 -0.30 1.15 -1 0 -0.80 0.35 -1 1.50 -1 1.15 0 1.50 -0.20 1.50 -1 0 -0.55 -0.20 -1 -0.50 -1 -0.55 0 -0.65 -2.10 -0.20 -3.85 0.25 -0.95 0.65 -1.15 2.50 -1.15 1.20 0 2.20 -0.20 2.20 -0.50 0 -0.25 1 -0.50 2.25 -0.50 1.70 0 2.25 0.20 2.25 0.80 0 1 1.50 0.70 2.05 -0.40 0.25 -0.50 0.70 -1.30 0.95 -1.75 0.30 -0.50 0.75 -1.45 1.05 -2.15 0.65 -1.55 1.35 -2 3.20 -2 3.10 0 5.75 3.90 6.15 9.15 0.20 2.65 0.10 3.35 -0.45 3.35 -0.60 0 -0.60 0.10 0 0.45 0.55 0.35 0.75 2.55 0.90 10.10 0.10 5.35 0.40 12.30 0.65 15.45 0.25 3.15 0.70 8.70 1 12.25 0.30 3.60 0.50 16 0.50 27.65 -0.05 18 -0.15 21.10 -0.80 21.10 -0.50 0 -0.70 0.70 -0.70 2.75 0 2.10 0.15 2.75 0.75 2.75 1.10 0 0.95 2.35 -0.10 2.65 -0.85 0.20 -0.85 0.25 0 0.30 1.15 0.05 1.25 4.05 0.10 4.05 -0.70 0 -1.10 2.60 -0.85 5.65 0.05 0.45 -0.15 0.85 -0.45 0.85 -0.35 0 -0.45 -0.55 -0.25 -1.50 0.15 -0.90 0.05 -1.50 -0.25 -1.50 -0.25 0 -1.05 -0.55 -1.75 -1.25 -0.70 -0.70 -1.55 -1.25 -1.90 -1.25 -0.80 0 -1.40 -1.85 -0.75 -2.30 0.85 -0.50 0.45 -1.65 -0.65 -1.80 -0.75 -0.10 -1.20 -0.55 -1.30 -1.25 -0.20 -1.30 -0.30 -1.35 -1.65 -0.65 -0.75 0.45 -0.85 0.75 -0.45 1.50 0.35 0.70 0.35 1.10 -0.15 1.55 -0.35 0.35 -0.55 1.15 -0.45 1.80 0.15 0.80 0 1.15 -0.60 1.15 -0.45 0 -0.85 -0.30 -0.85 -0.60 -0.05 -0.35 -0.20 0 -0.40 0.80 -0.15 0.80 -0.75 1.60 -1.35 1.80 -0.90 0.35 -1 0.25 -0.80 -0.80 0.10 -0.65 -0.05 -1.90 -0.40 -2.70 -0.50 -1.20 -0.50 -1.65 0 -2.25 0.45 -0.50 0.45 -0.75 0.05 -0.75 -0.30 0 -0.55 -0.20 -0.55 -0.50 0 -0.70 1.85 -0.60 2.15 0.15 0.15 0.35 0.30 0.25 0.30 -0.25 0.05 -0.55 -0.30 -0.90 -0.80 -0.95 -2.30 -0.10 -3.10 -0.35 -3.90 -1.10 -1.05 -1.10 -1.75 -1.10 -1.75 0 0 0.45 0.15 0.65 0.35 0.50 0.45 -0.45 1.70 0.65 1.35 1.20 -0.15 0.25 0 0.45 0.35 0.45 0.40 0 0.40 0.20 -0.05 0.75 -0.55 0.70 -0.70 0.65 -1.25 -0.05 -0.90 -1.25 -1.30 -0.10 -0.55 1.40 0.65 1.25 0.55 3.70 -0.15 4.10 -0.20 0.15 -0.40 -0.35 -0.45 -1.10 -0.05 -0.75 -0.35 -1.45 -0.60 -1.50 -0.30 -0.10 -0.85 -0.50 -1.25 -0.95 -0.65 -0.65 -0.75 -0.60 -0.75 0.10 0 0.70 -0.25 0.80 -1.10 0.50 -1.75 -0.60 -4.95 -0.40 -5.65 0.35 -0.90 0.90 -1.55 4.15 -0.75 3.65 0.65 -0.40 0.20 3.10 -0.60 4.05 -0.25 0.35 -0.20 1.15 0.10 1.90 0.25 0.75 0.35 2.20 0.20 3.25 -0.20 1.40 -0.05 2.30 0.55 3.25 0.45 0.70 0.75 1.60 0.60 2 -0.15 0.35 0 0.95 0.30 1.25 0.45 0.45 0.30 0.65 -0.60 0.90 -0.90 0.20 -1.10 0.55 -0.90 1.45 0.10 0.65 0 1.20 -0.20 1.20 -0.25 0 -0.45 -0.45 -0.45 -1z m28.55 -23.75 c0.40 0.95 0.45 0.95 0.30 0.05 -0.15 -1.45 -1.35 -1.65 -1.30 -0.20 0.05 1 0.10 1.05 0.35 0.15 l0.25 -1 0.40 1z m-19.45 -1.60 c0.35 -0.80 0.65 -1.75 0.60 -2.15 0 -0.40 -0.10 -1.40 -0.10 -2.15 -0.15 -1.90 -0.90 -1.30 -1.30 1 -0.20 1.05 -0.45 2.50 -0.60 3.30 -0.15 0.75 -0.05 1.35 0.20 1.35 0.30 0 0.85 -0.60 1.20 -1.35z m11.30 0.05 c-0.35 -0.75 -0.70 -1.05 -0.80 -0.75 -0.10 0.35 0.10 0.90 0.40 1.30 0.90 1.10 1.05 0.90 0.40 -0.55z m-5.90 -8.50 c0 -0.40 -0.20 -0.60 -0.50 -0.45 -0.25 0.15 -0.50 0.65 -0.50 1.05 0 0.40 0.25 0.60 0.50 0.45 0.30 -0.15 0.50 -0.65 0.50 -1.05z m-7.75 -3.20 c0.15 -0.55 0.80 -1.40 1.45 -1.85 0.60 -0.50 1.15 -1.35 1.15 -1.85 0 -0.75 -0.55 -0.35 -2.15 1.45 -1.95 2.30 -2.30 3.25 -1.20 3.25 0.25 0 0.55 -0.45 0.75 -1z"/>
  <path d="M289.05 456.65 c0 -0.60 -0.45 -1.15 -0.90 -1.30 -0.85 -0.20 -0.85 -0.20 0 -0.60 1.20 -0.50 1.45 -0.15 1.20 1.60 -0.15 1 -0.20 1.10 -0.30 0.30z"/>
  <path d="M132.35 440.75 c-0.35 -1 0.25 -2.15 1.30 -2.45 1.90 -0.50 2.25 -0.35 2.45 1.35 0.15 1.60 0.15 1.65 -1.70 1.60 -1.05 0 -1.95 -0.20 -2.05 -0.50z m3.15 -1.75 c0 -0.25 -0.35 -0.50 -0.75 -0.50 -0.40 0 -0.75 0.25 -0.75 0.50 0 0.30 0.35 0.50 0.75 0.50 0.40 0 0.75 -0.20 0.75 -0.50z"/>
  <path d="M138.80 439.25 c-0.50 -0.35 -0.75 -0.90 -0.60 -1.20 0.20 -0.30 0.10 -1 -0.25 -1.60 -0.30 -0.60 -0.35 -0.95 -0.10 -0.80 0.30 0.20 1 -0.15 1.55 -0.70 1.05 -0.95 1.10 -0.95 1.10 -0.05 0 0.55 -0.35 1.25 -0.75 1.60 -0.85 0.70 -1.05 1.75 -0.25 1.25 0.30 -0.20 0.50 0.25 0.50 0.95 0 1.50 0.05 1.50 -1.20 0.55z"/>
  <path d="M145.25 439.50 c0.55 -0.25 1.45 -0.45 2 -0.45 0.85 -0.05 0.85 0.05 0.25 0.45 -0.40 0.25 -1.30 0.45 -2 0.45 -1.15 0 -1.15 -0.05 -0.25 -0.45z"/>
  <path d="M86 432.25 c-1.15 -1.25 -1.15 -1.25 -0.20 -2 1.10 -0.85 2.20 -0.95 2.20 -0.25 0 0.30 -0.35 0.50 -0.75 0.50 -0.40 0 -0.75 0.25 -0.75 0.50 0 0.30 0.35 0.50 0.75 0.50 0.40 0 0.75 0.30 0.75 0.70 0 1.30 -0.80 1.30 -2 0.05z"/>
  <path d="M76.70 421.40 c-0.55 -0.85 0.30 -1.10 1.10 -0.35 0.65 0.70 0.65 0.80 -0.05 0.80 -0.45 0 -0.90 -0.20 -1.05 -0.45z"/>
  <path d="M72.40 416.15 c-1.45 -1.85 -2.75 -3.60 -2.90 -3.90 -0.15 -0.25 -2.15 -3.30 -4.50 -6.75 -2.35 -3.45 -4.55 -6.80 -4.90 -7.50 -0.35 -0.70 -0.90 -1.70 -1.25 -2.25 -2.65 -4.25 -7 -12.35 -9.55 -17.75 -0.45 -0.95 -1.15 -2.30 -1.50 -3 -0.80 -1.55 -3.75 -7.90 -4.30 -9.25 -0.20 -0.55 -1.10 -2.50 -1.95 -4.30 -0.85 -1.85 -1.55 -3.80 -1.55 -4.35 0 -0.60 -0.20 -1.15 -0.45 -1.30 -0.20 -0.15 -0.55 -0.95 -0.70 -1.80 -0.20 -0.85 -0.90 -2.70 -1.60 -4.20 -0.70 -1.45 -1.25 -3.15 -1.25 -3.75 0 -0.60 -0.20 -1.45 -0.45 -1.95 -0.25 -0.45 -1.10 -3.10 -1.80 -5.85 -0.75 -2.75 -1.65 -5.90 -2 -7 -0.35 -1.10 -0.90 -3.35 -1.25 -5 -0.35 -1.65 -0.95 -4.10 -1.30 -5.45 -0.40 -1.35 -0.70 -2.55 -0.70 -2.65 0 -0.10 0.55 -0.15 1.25 -0.15 0.80 0 1.25 0.30 1.25 0.75 0 1.25 2 0.85 3.50 -0.75 1.05 -1.10 1.85 -1.50 3.15 -1.50 1.50 0 1.80 0.20 1.95 1.25 0.10 0.90 0.35 1.10 0.85 0.75 0.60 -0.35 0.65 -0.65 0.15 -1.70 -0.30 -0.70 -0.90 -1.30 -1.35 -1.30 -0.55 0 -0.75 -0.55 -0.75 -1.95 0 -1.65 -0.20 -2 -1.30 -2.25 -1.15 -0.30 -1.25 -0.50 -1.10 -2.95 0.15 -2.60 0.15 -2.60 1.95 -2.75 2.30 -0.20 3.45 0.90 3.45 3.20 0 1.45 0.15 1.70 1.15 1.70 0.65 0 1.45 0.30 1.80 0.65 0.50 0.50 0.80 0.40 1.40 -0.50 0.60 -0.90 1.25 -1.15 2.95 -1.15 2.40 0 3.70 0.95 3.70 2.80 0 0.85 0.25 1.20 1 1.20 0.55 0 1 0.35 1 0.75 0 0.60 0.75 0.75 3.70 0.75 l3.65 0 0.30 -2.60 c0.20 -1.45 0.55 -2.70 0.85 -2.80 0.25 -0.10 0.50 -0.50 0.50 -0.90 0 -1.15 4.30 -0.95 5.35 0.30 0.50 0.55 1.35 1 2 1 0.85 0 1.10 -0.35 1.25 -1.60 l0.15 -1.65 4.65 -0.15 c4.40 -0.15 4.65 -0.10 5.10 1 l0.45 1.15 0.35 -1.10 c0.20 -0.70 0.70 -1.15 1.25 -1.15 0.85 0 0.95 -0.40 0.95 -4 l0 -4 1.50 0 1.50 0 0 4.50 c0 3.65 -0.15 4.50 -0.75 4.50 -0.60 0 -0.75 0.70 -0.75 3.50 0 2.80 0.15 3.50 0.75 3.50 0.65 0 0.75 6.15 0.75 52.50 0 42.15 -0.15 52.50 -0.65 52.50 -0.60 0 -1.70 -3.20 -2.05 -6 -0.10 -0.70 -0.20 -1.40 -0.25 -1.60 -0.05 -0.40 -3.10 -0.40 -3.80 0 -0.25 0.20 -1.15 0.25 -1.90 0.15 -1 -0.10 -1.80 0.25 -2.75 1.20 -0.85 0.85 -1.70 1.25 -2.40 1.10 -0.85 -0.15 -1 0 -0.80 0.75 0.10 0.50 0.45 1.05 0.75 1.25 0.30 0.15 0.35 0.05 0.15 -0.25 -0.20 -0.35 -0.25 -0.60 -0.05 -0.60 0.15 0 0.50 0.50 0.75 1.15 0.40 1 0.45 0.95 0.45 -0.50 0.05 -1.35 0.25 -1.65 1.10 -1.65 0.70 0 0.95 0.25 0.85 0.85 -0.10 0.45 0.35 1.35 1 2 0.65 0.65 1 1.40 0.85 1.65 -0.15 0.25 -0.80 -0.05 -1.45 -0.75 -1.40 -1.50 -1.80 -1.55 -1.80 -0.30 0 1.95 -0.95 1.50 -3.60 -1.80z m-8.40 -16.30 c0 -0.40 -0.35 -0.70 -0.75 -0.70 -0.80 0 -0.95 0.45 -0.40 1 0.55 0.55 1.15 0.40 1.15 -0.30z m0.90 -78.60 c0.30 -0.70 0.90 -1.25 1.35 -1.25 0.40 0 0.75 -0.20 0.75 -0.50 0 -0.25 -0.65 -0.50 -1.45 -0.50 -1.25 0 -1.45 0.20 -1.65 1.75 -0.25 2.05 0.20 2.25 1 0.50z"/>
  <path d="M261.50 316.50 c0 -16.65 0 -17 1 -17 1 0 1 0.35 1 17 0 16.65 0 17 -1 17 -1 0 -1 -0.35 -1 -17z"/>
  <path d="M27.30 311.90 c-0.15 -0.65 -0.30 -2.20 -0.30 -3.50 l0 -2.40 2.25 0 2.25 0 0 2.25 c0 2.05 -0.10 2.25 -1.25 2.25 -1 0 -1.25 0.25 -1.25 1.25 0 1.55 -1.25 1.65 -1.70 0.15z"/>
  <path d="M52.35 308.20 c-0.20 -0.20 -0.35 -0.90 -0.35 -1.55 0 -0.80 -0.30 -1.15 -1 -1.15 -0.85 0 -1 -0.35 -1 -1.90 0 -1.70 0.20 -2 1.75 -2.75 2.20 -1.05 4.70 -1.10 7 -0.15 1.60 0.70 1.75 0.95 1.75 2.75 0 1.95 -0.10 2.05 -1.45 2.05 -1.25 0 -1.50 0.20 -1.65 1.40 -0.15 1.20 -0.35 1.35 -2.40 1.50 -1.25 0.10 -2.45 0 -2.65 -0.20z"/>
  <path d="M25.35 298.65 c-0.20 -0.15 -0.35 -0.95 -0.35 -1.75 0 -1.05 0.25 -1.40 1 -1.40 0.80 0 1 0.35 1 1.75 0 1.65 -0.80 2.30 -1.65 1.40z"/>
  <path d="M24.80 293.40 c-0.60 -2.25 -0.35 -3.40 0.70 -3.40 0.85 0 1 0.35 1 2.25 0 2.45 -1.15 3.20 -1.70 1.15z"/>
  <path d="M23.80 280.90 c-0.15 -0.65 -0.30 -1.90 -0.30 -2.75 0 -1.30 0.20 -1.65 1 -1.65 0.90 0 1 0.35 1 2.75 0 2 -0.20 2.75 -0.70 2.75 -0.35 0 -0.80 -0.50 -1 -1.10z"/>
  <path d="M85.50 264.30 c0 -1.65 0.10 -1.80 1.55 -1.80 1.40 0 1.50 0.10 1.35 1.65 -0.10 1.35 -0.40 1.65 -1.50 1.75 -1.30 0.15 -1.40 0.05 -1.40 -1.60z"/>
  <path d="M86.65 259.65 c-0.40 -0.10 -0.65 -1.10 -0.65 -2.20 0 -1.90 0.05 -1.95 1.80 -1.95 1.45 0 1.70 0.15 1.50 0.90 -0.15 0.45 -0.40 1.45 -0.60 2.25 -0.30 1.30 -0.75 1.55 -2.05 1z"/>
  <path d="M23.50 256.40 c0 -1.50 0.65 -2.90 1.30 -2.90 0.45 0 0.70 0.60 0.70 1.75 0 1.40 -0.20 1.75 -1 1.75 -0.55 0 -1 -0.30 -1 -0.60z"/>
  <path d="M261.50 250.90 c0 -2.85 0.45 -4.40 1.30 -4.40 0.55 0 0.70 0.80 0.70 3.25 0 2.90 -0.10 3.25 -1 3.25 -0.85 0 -1 -0.35 -1 -2.10z"/>
  <path d="M448.50 192.80 c0 -1.20 0.15 -1.30 2.25 -1.30 1.60 0 2.35 0.25 2.60 0.75 0.40 1.10 0 1.35 -2.60 1.60 -2.15 0.25 -2.25 0.25 -2.25 -1.05z"/>
  <path d="M304.15 102.15 c-2.50 -0.60 -3.15 -0.95 -3.15 -1.70 0 -0.75 0.35 -0.95 1.75 -0.95 0.95 0 1.75 0.25 1.75 0.50 0 0.30 1 0.50 2.25 0.50 2.05 0 2.25 0.10 2.25 1.25 0 1.45 -0.30 1.45 -4.85 0.40z"/>
  <path d="M228 101.05 c0 -1.50 0.05 -1.55 2.25 -1.55 1.85 0 2.25 0.15 2.25 0.95 0 0.60 -0.50 1.05 -1.35 1.25 -0.80 0.20 -1.80 0.45 -2.25 0.60 -0.70 0.20 -0.90 -0.05 -0.90 -1.25z"/>
  <path d="M240 98.75 c0 -1.15 0.20 -1.25 2.25 -1.25 1.85 0 2.25 0.15 2.25 0.95 0 0.95 -1.25 1.55 -3.35 1.55 -0.90 0 -1.15 -0.30 -1.15 -1.25z"/>
  <path d="M286.40 99.15 c-0.50 -0.10 -0.90 -0.65 -0.90 -1.20 0 -0.75 0.35 -0.95 1.75 -0.95 1.55 0 1.75 0.15 1.75 1.25 0 1.25 -0.55 1.45 -2.60 0.90z"/>
  <path d="M249 97.75 c0 -1.15 0.20 -1.25 2.25 -1.25 1.85 0 2.25 0.15 2.25 0.95 0 0.95 -1.25 1.55 -3.35 1.55 -0.90 0 -1.15 -0.30 -1.15 -1.25z"/>
  <path d="M280.90 98.65 c-0.50 -0.10 -0.90 -0.65 -0.90 -1.20 0 -0.75 0.35 -0.95 1.75 -0.95 1.55 0 1.75 0.15 1.75 1.25 0 1.25 -0.55 1.45 -2.60 0.90z"/>
  <path d="M255.50 97.25 c0 -1.15 0.20 -1.25 2.25 -1.25 1.85 0 2.25 0.15 2.25 0.95 0 0.95 -1.25 1.55 -3.35 1.55 -0.90 0 -1.15 -0.30 -1.15 -1.25z"/>
  <path d="M271.90 98.15 c-0.50 -0.10 -0.90 -0.65 -0.90 -1.20 0 -0.75 0.35 -0.95 1.75 -0.95 1.55 0 1.75 0.15 1.75 1.25 0 1.25 -0.55 1.45 -2.60 0.90z"/>
 </g>
 <g fill="#ffffff">
  <path d="M332 497.90 l0 -2.15 0.75 1.45 c0.95 1.80 0.95 2.80 0 2.80 -0.55 0 -0.75 -0.55 -0.75 -2.10z"/>
  <path d="M332.20 463 c0 -2.90 0.05 -4.05 0.15 -2.60 0.10 1.40 0.10 3.80 0 5.25 -0.10 1.40 -0.15 0.25 -0.15 -2.65z"/>
  <path d="M402.05 463.65 c0.10 -3.85 0.15 -4.05 0.40 -1.80 0.40 3.15 0.70 3.50 2.30 2.65 1 -0.55 1.40 -0.55 1.90 -0.05 0.45 0.50 0.25 0.95 -1.15 2.10 -0.95 0.80 -2.10 1.45 -2.60 1.45 -0.80 0 -0.90 -0.50 -0.85 -4.35z"/>
  <path d="M408.15 463.65 c-1 -0.35 -0.75 -0.95 0.60 -1.55 1.50 -0.70 2.75 -0.80 2.75 -0.20 0 0.60 -2.70 2 -3.35 1.75z"/>
  <path d="M411.25 460.95 c-0.55 -0.20 -0.75 -0.40 -0.50 -0.40 0.30 -0.05 1.15 -0.60 1.95 -1.30 1.40 -1.20 3.30 -1.70 3.30 -0.85 0 1.20 -3.50 3.05 -4.75 2.55z"/>
  <path d="M402.10 457 c0 -0.95 0.10 -1.35 0.25 -0.85 0.10 0.45 0.10 1.25 0 1.75 -0.15 0.45 -0.25 0.05 -0.25 -0.90z"/>
  <path d="M416 457.50 c-0.55 -0.35 -0.55 -0.55 -0.05 -1.20 0.35 -0.40 0.85 -0.70 1.05 -0.65 0.40 0.10 4 -3.65 4 -4.20 0 -0.20 1.35 -1.15 3 -2.20 1.65 -1 3.25 -2.20 3.55 -2.55 0.60 -0.75 2.45 -1 2.40 -0.30 0 0.30 -8.80 8.05 -12 10.55 -0.80 0.60 -1.50 0.80 -1.95 0.55z"/>
  <path d="M332.20 437.25 c0 -4.95 0.10 -6.90 0.15 -4.35 0.10 2.55 0.10 6.60 0 9 -0.05 2.40 -0.15 0.30 -0.15 -4.65z"/>
  <path d="M124.15 438 c0 -1.25 0.10 -1.75 0.20 -1.10 0.10 0.60 0.10 1.60 0 2.25 -0.10 0.60 -0.20 0.10 -0.20 -1.15z"/>
  <path d="M437.65 438.15 c-0.35 -0.15 -0.65 -0.45 -0.65 -0.75 0 -0.95 10.15 -10.90 11.10 -10.90 0.50 0 0.90 0.15 0.90 0.40 -0.05 0.85 -3.60 4.10 -4.50 4.10 -1.10 0 -1.80 0.80 -0.90 1.15 1.15 0.35 -0.50 1.80 -1.75 1.50 -0.90 -0.20 -0.95 -0.15 -0.35 0.30 0.65 0.45 0.45 0.85 -1.25 2.50 -1.10 1.05 -2.30 1.85 -2.60 1.70z"/>
  <path d="M193.15 428.75 c0 -1.35 0.10 -1.90 0.20 -1.10 0.10 0.75 0.10 1.85 0 2.50 -0.10 0.60 -0.20 0 -0.20 -1.40z"/>
  <path d="M402.15 427.75 c0 -1.90 0.10 -2.65 0.20 -1.60 0.10 1 0.10 2.60 0 3.50 -0.10 0.85 -0.20 0.05 -0.20 -1.90z"/>
  <path d="M448.35 426.10 c-0.45 -0.10 -0.75 -0.40 -0.60 -0.65 0.40 -0.60 2.25 -0.60 2.25 0 0 0.65 -0.60 0.90 -1.65 0.65z"/>
  <path d="M451.05 423.05 c-0.85 -0.55 -0.20 -1.85 2.40 -5.05 1 -1.25 2.45 -3.15 3.25 -4.25 0.80 -1.10 2.15 -2.75 3 -3.65 0.85 -0.90 2.15 -2.70 2.90 -4 2.35 -4.05 3.90 -7.05 3.90 -7.55 0 -0.60 4.25 -7.85 5.50 -9.30 0.45 -0.55 1.35 -2.10 2 -3.50 0.60 -1.35 2 -4.20 3 -6.25 2.95 -5.85 3.60 -8.30 3.25 -11.60 -0.25 -2.25 -0.55 -2.90 -1.15 -2.90 -0.70 0 -0.90 -0.65 -1 -3.50 -0.10 -2.25 0 -3.50 0.35 -3.50 0.30 0 0.55 -0.60 0.55 -1.35 0 -0.95 -0.65 -2.05 -2 -3.35 -1.10 -1.10 -2.10 -2.35 -2.25 -2.85 -0.40 -1.15 -1.60 -1.55 -2.75 -0.95 -0.50 0.25 -1.30 0.35 -1.70 0.20 -0.45 -0.15 -0.80 -0.10 -0.80 0.20 0 0.30 -0.65 0.35 -1.80 0.10 -1.75 -0.40 -2.85 -1 -1.85 -1 0.30 0 0.65 -0.55 0.75 -1.20 0.25 -1.20 -0.85 -2.30 -2.35 -2.30 -0.40 0 -0.75 -0.20 -0.75 -0.45 0 -0.35 -3.30 -0.75 -12.15 -1.30 -2.40 -0.15 -3.95 0 -5.25 0.55 -1.85 0.80 -9.10 3.20 -9.60 3.20 -0.65 -0.05 2.35 -2 3.05 -2 0.40 0 0.95 -0.20 1.25 -0.45 0.55 -0.55 8.50 -2.35 12.20 -2.80 3.95 -0.50 16 1.60 16 2.75 0 0.20 0.70 0.50 1.55 0.70 0.85 0.15 1.40 0.50 1.20 0.80 -0.15 0.25 0.15 0.50 0.70 0.50 0.60 0 1.05 0.15 1.05 0.40 0 0.20 0.50 0.60 1.15 0.85 0.60 0.30 1 0.60 0.85 0.75 -0.25 0.30 2.35 3 2.95 3 1.50 0 4.55 5.90 3.40 6.60 -0.40 0.25 -0.30 0.40 0.30 0.40 0.50 0 0.85 0.40 0.85 1 0 0.55 -0.20 1 -0.50 1 -0.25 0 -0.50 0.25 -0.50 0.50 0 0.30 0.35 0.50 0.80 0.50 0.70 0 0.80 0.70 0.60 5.40 -0.15 3.75 -0.45 5.95 -1.10 7.35 -0.50 1.10 -1.10 2.55 -1.40 3.25 -1.40 3.60 -4.60 10.20 -6.40 13.25 -0.80 1.40 -1.65 2.85 -1.85 3.25 -0.65 1.30 -11.30 17.20 -12.85 19.15 -0.85 1.05 -1.90 1.85 -2.50 1.85 -0.80 0 -0.90 0.10 -0.35 0.45 0.60 0.40 0.15 1.20 -2.15 4 -1.55 1.95 -2.90 3.55 -2.95 3.55 -0.05 0 -0.40 -0.20 -0.80 -0.45z m29 -61.20 c-0.70 -0.70 -1.30 0.85 -0.80 2.05 0.30 0.75 0.40 0.70 0.80 -0.35 0.30 -0.80 0.30 -1.40 0 -1.70z m-11.05 -13.20 c0 -0.25 -0.35 -0.80 -0.70 -1.30 -0.60 -0.80 -0.70 -0.80 -1 -0.05 -0.50 1.30 -0.35 1.70 0.70 1.70 0.55 0 1 -0.15 1 -0.35z"/>
  <path d="M332.05 405.95 c0 -10.65 0.15 -14.35 0.55 -13.45 0.50 1.20 0.15 27.40 -0.35 27.95 -0.15 0.10 -0.25 -6.40 -0.20 -14.50z"/>
  <path d="M363.30 404.90 c-0.25 -12.30 -0.45 -15.25 -1.05 -15.90 -0.40 -0.45 -0.75 -1.30 -0.75 -1.90 0 -0.60 -0.45 -1.50 -1 -1.95 -0.55 -0.50 -1 -1.20 -1 -1.60 0 -0.40 -0.35 -1.15 -0.85 -1.65 -0.45 -0.50 -0.65 -1.05 -0.50 -1.25 0.50 -0.50 2.80 1.85 2.55 2.60 -0.15 0.35 0.20 0.75 0.80 0.90 0.85 0.20 1 0.55 0.75 1.30 -0.20 0.75 -0.10 1.05 0.40 1.05 0.90 0 1.65 1.65 0.90 1.90 -0.85 0.30 -0.65 1.10 0.35 1.15 0.50 0 0.60 0.15 0.25 0.30 -0.90 0.35 -0.80 1.15 0.10 1.15 0.65 0 0.75 1.95 0.75 14.50 0 11.80 -0.15 14.50 -0.65 14.50 -0.55 0 -0.75 -3 -1.05 -15.10z"/>
  <path d="M293.65 415 c0 -1.50 0.10 -2.15 0.20 -1.35 0.10 0.75 0.10 1.95 0 2.75 -0.10 0.75 -0.20 0.10 -0.20 -1.40z"/>
  <path d="M155.55 409.35 c0 -3.35 0.15 -5.80 0.30 -5.45 0.10 0.30 0.55 0.60 0.95 0.60 0.50 0 0.70 0.70 0.70 2.50 0 1.90 -0.20 2.50 -0.75 2.50 -0.40 0 -0.75 0.45 -0.75 1 0 0.55 0.35 1 0.75 1 1.25 0 1 3.30 -0.25 3.65 -0.95 0.25 -1 0 -0.95 -5.80z"/>
  <path d="M224.30 411.35 c-0.35 -3.75 0.05 -6.35 1 -6.35 0.55 0 0.70 1.05 0.70 4.75 0 3.65 -0.15 4.75 -0.70 4.75 -0.45 0 -0.75 -1 -1 -3.15z"/>
  <path d="M124.05 321.65 c-0.05 -69 0.10 -92.25 0.55 -94.25 1.65 -7.45 8.60 -13.15 15.90 -13.10 5.30 0.05 8.50 1.30 11.85 4.65 5.40 5.40 4.90 -3.15 5.05 85.45 0.10 66.80 0.05 77.10 -0.60 77.10 -0.40 0 -0.80 0.30 -0.95 0.65 -0.20 0.65 -0.70 -5.85 -1.15 -14.65 -0.15 -2.90 -0.50 -5.95 -0.75 -6.85 -0.30 -0.90 -0.40 -3.60 -0.20 -6.20 0.20 -3.40 0.15 -4.70 -0.30 -5 -0.50 -0.30 -0.50 -0.55 0 -1.15 0.40 -0.45 0.50 -1.20 0.25 -1.90 -0.20 -0.65 -0.35 -1.55 -0.25 -2.05 0.05 -0.50 -0.15 -1.25 -0.45 -1.65 -0.45 -0.50 -0.45 -0.70 -0.05 -0.70 1.10 0 0.50 -1.50 -0.70 -1.80 -1.20 -0.30 -1.80 -1.70 -0.75 -1.70 0.30 0 0.50 -0.35 0.50 -0.75 0 -0.40 0.35 -0.75 0.75 -0.75 0.45 0 0.75 -0.45 0.75 -1.25 0 -0.70 -0.20 -1.25 -0.50 -1.25 -0.25 0 -0.35 -0.30 -0.25 -0.65 0.30 -0.75 -1.50 -4.45 -1.95 -4 -0.15 0.20 -0.30 0 -0.30 -0.40 0 -0.40 -0.45 -1 -1 -1.30 -0.75 -0.50 -1.10 -0.50 -1.75 0.15 -0.90 0.95 -1 1.70 -0.10 1.70 0.30 0 0.05 0.30 -0.65 0.65 -0.70 0.35 -1.30 1.05 -1.40 1.60 -0.30 1.40 -1.05 2.25 -2.10 2.25 -0.50 0 -1 0.25 -1.10 0.60 -0.30 0.85 -1.95 0.05 -2.25 -1.10 -0.35 -1.35 -1.65 -1.25 -1.65 0.15 0 2.25 -0.65 3.40 -2.20 4.05 -1.50 0.60 -1.60 0.80 -1.40 2.75 0.20 2.25 -0.45 2.75 -1.50 1.05 -0.35 -0.55 -0.90 -1 -1.25 -1 -0.35 0 -0.65 0.45 -0.65 1 0 0.70 -0.35 1 -1.15 1 -1.35 0 -2.35 0.85 -2.35 2.05 0 0.50 -0.25 0.95 -0.60 1.05 -0.80 0.30 -0.85 5.50 0 5.75 0.70 0.25 0.85 2.65 0.10 2.65 -0.25 0 -0.50 0.45 -0.50 1 0 0.80 0.25 0.95 1.50 0.70 1.55 -0.35 2.15 0.55 0.75 1.10 -1.25 0.50 -0.85 1.70 0.50 1.70 0.70 0 1.25 0.20 1.25 0.40 0 0.25 -0.50 0.40 -1.10 0.40 -0.90 -0.05 -1.15 0.25 -1.15 1.20 0 0.70 -0.30 1.45 -0.60 1.65 -0.35 0.20 -0.65 0.85 -0.65 1.35 0 1.70 -1.20 5.75 -1.85 6.25 -0.50 0.40 -0.65 5.10 -0.70 20.15 -0.05 10.80 -0.25 20.35 -0.45 21.25 -0.25 0.90 -0.40 -39.60 -0.45 -90z m11.85 13.50 c-0.25 -1.30 -1.70 -1.40 -2.05 -0.15 -0.20 0.80 0 1 1 1 0.90 0 1.20 -0.25 1.05 -0.85z"/>
  <path d="M402.15 406.50 c0 -1.50 0.10 -2.15 0.20 -1.35 0.10 0.75 0.10 1.95 0 2.75 -0.10 0.75 -0.20 0.10 -0.20 -1.40z"/>
  <path d="M193 283.70 c0 -117.95 0 -121.05 0.95 -123.70 0.95 -2.70 4.50 -7.30 6.75 -8.80 2 -1.30 6.85 -2.30 9.75 -2 5.55 0.50 12.05 5.15 14.45 10.30 0.80 1.60 0.85 11.10 1 117.40 0.10 98.40 0 115.60 -0.60 115.60 -0.55 0 -0.75 -2.25 -1 -11.85 -0.40 -14.50 -0.65 -17.65 -1.55 -17.65 -0.35 0 -0.75 0.20 -0.85 0.45 -0.05 0.25 -0.60 0.15 -1.10 -0.25 -0.90 -0.65 -0.95 -0.95 -0.45 -4.30 0.70 -4.50 0.30 -10.85 -0.65 -11.25 -0.40 -0.15 -0.70 -0.75 -0.70 -1.35 0 -0.55 -0.15 -1.55 -0.30 -2.15 -0.25 -0.95 -0.40 -1 -1 -0.40 -0.60 0.60 -0.90 0.60 -2.15 -0.15 -1.25 -0.70 -1.55 -0.70 -2.35 -0.10 -0.45 0.40 -1.45 0.75 -2.15 0.75 -0.90 0 -1.45 0.40 -1.95 1.40 -0.55 1.15 -0.95 1.35 -2.65 1.35 -1.40 0 -1.95 -0.20 -1.95 -0.75 0 -0.40 -0.35 -0.75 -0.75 -0.75 -0.95 0 -3.20 2.45 -3.25 3.45 0 0.45 -0.40 0.55 -1.25 0.35 -1 -0.25 -1.25 -0.15 -1.25 0.70 0 0.80 0.35 1 1.50 1 0.85 0 1.50 -0.20 1.50 -0.50 0 -0.25 0.45 -0.50 1 -0.50 1.15 0 1.25 0.85 0.25 2.20 -1 1.35 -0.95 2.30 0.20 2.30 0.70 0 0.85 0.30 0.65 1.25 -0.15 1 0 1.25 0.80 1.25 1 0 0.95 0.15 -0.50 2.50 -0.95 1.55 -1.90 2.50 -2.50 2.50 -0.50 0 -1.10 0.40 -1.30 0.90 -0.20 0.45 -0.85 0.85 -1.45 0.90 -1.25 0.05 -1.35 -0.75 -1.15 -9.45 0.10 -4 -0.45 -8.85 -1 -8.85 -1.05 0 -1.85 8.20 -1.05 10.60 0.30 0.85 0.35 1.80 0.10 2.10 -0.20 0.30 -0.45 2.10 -0.50 4 0 1.85 -0.15 3.60 -0.30 3.80 -0.15 0.25 -0.40 8.95 -0.55 19.35 -0.15 10.40 -0.35 19 -0.50 19.10 -0.10 0.10 -0.20 -54.20 -0.20 -120.75z m30.40 69.95 c0.10 -0.85 -0.15 -1.75 -0.55 -2.05 -0.60 -0.50 -0.75 -0.30 -1 1.20 -0.20 1.05 -0.20 2.05 -0.05 2.30 0.55 0.85 1.45 0.05 1.60 -1.45z m-26.90 -10.50 c0 -2.30 -1.15 -1.95 -1.55 0.45 -0.25 1.50 -0.15 1.75 0.65 1.50 0.65 -0.15 0.90 -0.70 0.90 -1.95z m8.50 0.95 c0 -1.30 -0.55 -1.70 -1.35 -1.05 -1 0.85 -0.80 1.95 0.35 1.95 0.65 0 1 -0.35 1 -0.90z m18.20 -2.85 c0.35 -2.25 0.15 -3.25 -0.75 -3.25 -0.25 0 -0.45 1.25 -0.45 2.75 0 3.30 0.75 3.65 1.20 0.50z"/>
  <path d="M224.50 399.25 c0 -3.45 0.15 -4.25 0.75 -4.25 0.60 0 0.75 0.80 0.75 4.25 0 3.45 -0.15 4.25 -0.75 4.25 -0.60 0 -0.75 -0.80 -0.75 -4.25z"/>
  <path d="M293.75 392.95 c-0.55 -0.90 0.25 -3.95 1 -3.95 0.55 0 0.75 0.60 0.75 2.25 0 1.65 -0.20 2.25 -0.70 2.25 -0.40 0 -0.90 -0.25 -1.05 -0.55z"/>
  <path d="M403.05 391.75 c0 -0.55 0.30 -1.90 0.70 -3 0.55 -1.70 0.65 -1.80 0.70 -0.70 0.05 0.75 -0.30 2.10 -0.70 3 -0.45 1.15 -0.70 1.35 -0.70 0.70z"/>
  <path d="M54.25 387.60 c-0.90 -1.95 -1.80 -4.60 -1.50 -4.60 0.30 0 2.15 3.20 2.70 4.60 0.80 2.10 -0.15 2.10 -1.20 0z"/>
  <path d="M261.85 374.90 c-0.20 -5.85 -0.10 -12.20 0.15 -14.15 0.25 -1.90 0.35 -3.60 0.20 -3.80 -0.40 -0.70 -0.65 -98.55 -0.30 -115.20 l0.35 -16.50 1.80 -2.75 c4.35 -6.70 10.45 -9.50 17.55 -8 4.10 0.90 8.45 3.90 11.05 7.60 1.70 2.50 2.05 3.40 2.40 6.75 0.20 2.15 0.40 31.85 0.40 66.05 0.05 54.90 -0.05 62.10 -0.70 62.10 -0.50 0 -0.75 0.55 -0.75 1.75 0 1.20 0.25 1.75 0.75 1.75 0.40 0 0.75 0.25 0.75 0.50 0 0.30 -0.35 0.50 -0.75 0.50 -0.40 0 -0.75 0.45 -0.75 1 0 0.55 0.35 1 0.75 1 0.65 0 0.75 1.40 0.75 9.45 0 8.90 -0.05 9.45 -0.95 9.70 -0.85 0.20 -1.05 -0.10 -1.30 -2.35 -0.15 -1.40 -0.20 -6.90 -0.10 -12.20 0.15 -7.90 0.10 -9.80 -0.50 -10.40 -1.05 -1.05 -2.10 -0.85 -2.65 0.45 -0.35 0.85 -0.40 0.65 -0.15 -0.85 0.25 -1.55 0.10 -2.10 -0.60 -2.65 -0.55 -0.35 -0.65 -0.65 -0.35 -0.65 0.90 0 0.70 -2.35 -0.25 -2.70 -0.60 -0.25 -0.70 -0.45 -0.25 -0.90 0.85 -0.85 0.75 -3.75 -0.15 -4.10 -0.40 -0.15 -0.75 -0.50 -0.75 -0.80 0 -0.25 0.35 -0.50 0.75 -0.50 0.95 0 1 -2.30 0.05 -3.30 -1.10 -1.05 -1.30 -0.85 -1.30 1.30 0 1.65 -0.15 2 -1 2 -0.75 0 -1 0.35 -1 1.40 0 1.05 -0.10 1.20 -0.50 0.60 -0.25 -0.40 -0.50 -1.25 -0.50 -1.85 0 -1.25 -0.95 -1.50 -1.90 -0.55 -0.40 0.40 -0.60 0.40 -0.60 0.05 0 -0.30 0.35 -0.65 0.75 -0.85 0.40 -0.15 0.75 -0.60 0.75 -0.95 0 -0.50 -0.75 -0.70 -2.75 -0.70 -2 0 -2.75 0.20 -2.75 0.65 0 0.40 -0.35 0.70 -0.80 0.70 -0.60 0 -0.75 0.35 -0.55 1.40 0.60 2.90 0.60 3.25 -0.05 3.45 -0.45 0.20 -0.55 -0.10 -0.30 -1.05 0.25 -1 0.10 -1.30 -0.50 -1.30 -0.45 0 -0.80 0.35 -0.80 0.75 0 0.40 -0.20 0.75 -0.50 0.75 -0.25 0 -0.50 0.45 -0.50 1 0 0.55 0.25 1 0.50 1 0.70 0 0.65 2.85 -0.05 3.30 -0.30 0.15 -0.40 0.85 -0.20 1.65 0.20 0.85 0.15 1.15 -0.15 0.80 -0.30 -0.25 -0.60 -0.95 -0.70 -1.50 -0.10 -0.60 -0.55 -1 -1.15 -1 -0.65 0 -1 0.35 -1 1 0 0.55 -0.25 1.15 -0.60 1.35 -0.35 0.25 -0.50 1.55 -0.40 3.50 0.10 1.75 0.10 2.65 -0.05 2.05 -0.15 -0.65 -0.50 -1.15 -0.75 -1.15 -0.25 0 -0.45 -0.75 -0.45 -1.65 0 -1.05 -0.40 -2.05 -0.95 -2.55 -0.90 -0.80 -1 -0.80 -2 0.50 -0.55 0.75 -1.05 1.55 -1.05 1.75 0 0.25 -0.30 0.45 -0.65 0.45 -0.45 0 -0.55 0.75 -0.45 2.65 0.20 3.55 0.20 2.90 -0.05 13.65 -0.30 13.60 -1.10 13.95 -1.50 0.60z m30.65 -19.15 c0 -0.40 -0.20 -0.75 -0.50 -0.75 -0.25 0 -0.50 0.35 -0.50 0.75 0 0.40 0.25 0.75 0.50 0.75 0.30 0 0.50 -0.35 0.50 -0.75z m-26.95 -9.80 c0.70 -1.35 -0.05 -2.20 -1.25 -1.30 -0.55 0.40 -0.75 0.95 -0.50 1.50 0.40 1.15 1.05 1.05 1.75 -0.20z"/>
  <path d="M341 378.70 c0 -0.35 2.60 -1.25 2.85 -1 0.10 0.10 -0.50 0.40 -1.30 0.70 -0.85 0.30 -1.55 0.45 -1.55 0.30z"/>
  <path d="M345.65 377.15 c0.45 -0.10 1.25 -0.10 1.75 0 0.45 0.15 0.05 0.25 -0.90 0.25 -0.95 0 -1.35 -0.10 -0.85 -0.25z"/>
  <path d="M420.75 359 c1.65 -1.65 3.10 -3 3.20 -3 0.15 0 -1.05 1.35 -2.70 3 -1.65 1.65 -3.10 3 -3.20 3 -0.15 0 1.05 -1.35 2.70 -3z"/>
  <path d="M448.50 359.10 c0 -0.35 -0.35 -0.60 -0.75 -0.60 -0.40 0 -0.75 -0.35 -0.75 -0.75 0 -1.15 1.40 -0.90 1.75 0.30 0.20 0.55 0.20 1.15 0.05 1.30 -0.15 0.20 -0.30 0.05 -0.30 -0.25z"/>
  <path d="M207.35 354.50 c-0.25 -1 0.35 -4.35 0.85 -4.85 0.15 -0.20 0.30 0.25 0.30 1 0 0.70 0.25 1.45 0.55 1.65 0.40 0.20 0.40 0.45 0 0.85 -0.30 0.30 -0.55 0.95 -0.55 1.45 0 1.20 -0.80 1.15 -1.15 -0.10z"/>
  <path d="M424.95 354.90 c0.70 -0.95 7.10 -5.40 9.65 -6.70 1.40 -0.70 1.55 -0.75 1 -0.10 -0.35 0.45 -1.30 1.05 -2.10 1.40 -0.90 0.40 -1.50 1 -1.50 1.55 0 0.55 -0.35 0.95 -0.75 0.95 -0.95 0 -2.90 1.05 -3.40 1.90 -0.20 0.30 -0.80 0.60 -1.25 0.60 -0.50 0 -1.20 0.30 -1.60 0.65 -0.60 0.50 -0.60 0.45 -0.05 -0.25z"/>
  <path d="M134.70 354.20 c0.15 -0.45 0.30 -0.95 0.30 -1.20 0 -0.25 0.40 -0.40 0.90 -0.40 0.45 0.05 1.45 -0.10 2.25 -0.25 0.75 -0.20 1.35 -0.15 1.35 0.10 0 0.65 -1.40 1.65 -1.90 1.35 -0.30 -0.15 -0.75 0.05 -1.10 0.45 -0.85 1 -2.20 1 -1.80 -0.05z"/>
  <path d="M38.50 352.90 c0 -0.35 -0.60 -1.75 -1.25 -3.15 -0.70 -1.35 -1.25 -3 -1.25 -3.65 0 -0.60 -0.20 -1.50 -0.45 -2 -0.25 -0.45 -1.20 -3.55 -2.10 -6.85 -0.90 -3.30 -1.75 -6.20 -1.95 -6.50 -0.20 -0.25 -0.50 -1.40 -0.70 -2.50 -0.70 -4.40 -1.55 -8.55 -1.85 -9 -0.20 -0.25 -0.70 -2.85 -1.15 -5.70 -0.50 -2.90 -0.95 -5.35 -1.05 -5.50 -0.30 -0.50 -1.30 -8.10 -1.55 -11.80 -0.15 -1.90 -0.45 -4.40 -0.70 -5.50 -0.25 -1.15 -0.60 -8.35 -0.80 -16 -0.40 -16.55 0.45 -32.50 2.25 -43.10 0.30 -1.75 0.75 -4.45 1.05 -6 0.25 -1.60 0.75 -4 1 -5.40 0.30 -1.35 0.75 -3.50 1 -4.75 0.35 -2 2.70 -11.15 4.70 -18.25 1 -3.55 4.25 -13.20 5.05 -15 0.35 -0.80 1.05 -2.50 1.50 -3.75 1.70 -4.55 2.45 -6.20 6.65 -15 1.65 -3.45 3.15 -6.60 3.30 -7 0.20 -0.40 1 -1.85 1.80 -3.25 0.80 -1.35 2.05 -3.60 2.75 -5 0.70 -1.35 1.70 -3.15 2.25 -4 0.55 -0.80 1.30 -2.15 1.65 -3 0.40 -0.80 1.05 -1.80 1.50 -2.20 0.50 -0.35 0.85 -0.95 0.85 -1.30 0 -0.35 0.30 -0.90 0.70 -1.20 0.40 -0.35 1.10 -1.40 1.55 -2.40 1.05 -2.15 6.30 -9.60 7.75 -10.90 0.55 -0.50 1 -1.15 1 -1.50 0 -0.30 0.65 -1.20 1.50 -2 0.80 -0.80 1.50 -1.70 1.50 -2 0 -0.30 1.40 -2.15 3.15 -4.10 1.70 -1.90 5 -5.70 7.35 -8.35 8.65 -9.95 23.90 -23.95 36.30 -33.40 3.65 -2.80 18.10 -12.35 20.95 -13.90 0.55 -0.30 2.15 -1.15 3.50 -1.95 4.45 -2.60 18 -9.20 23 -11.25 0.85 -0.35 2.50 -1.10 3.75 -1.65 1.25 -0.55 3.05 -1.30 4 -1.65 0.95 -0.35 2.45 -0.95 3.25 -1.30 1.70 -0.70 15.45 -5.25 18.50 -6.10 10.85 -3.10 31.05 -6.90 46.25 -8.70 7.60 -0.90 34.80 -0.70 44 0.30 4 0.45 8.25 0.80 9.50 0.80 1.30 0 2.50 0.20 2.75 0.45 0.45 0.40 7.15 1.60 13.10 2.35 1.45 0.15 2.75 0.50 2.90 0.70 0.15 0.25 1.35 0.60 2.65 0.75 3.45 0.45 7.25 1.30 7.85 1.80 0.30 0.20 1.55 0.55 2.75 0.75 1.25 0.20 2.50 0.55 2.80 0.75 0.30 0.25 1.75 0.65 3.20 0.95 1.45 0.30 3.35 0.85 4.15 1.25 0.85 0.40 1.90 0.75 2.40 0.75 0.50 0 1.05 0.25 1.20 0.50 0.15 0.30 0.85 0.50 1.50 0.50 0.65 0 1.30 0.20 1.50 0.45 0.15 0.25 1.45 0.85 2.90 1.30 1.40 0.45 3.55 1.25 4.70 1.80 1.20 0.50 2.35 0.95 2.60 0.95 0.25 0 1.10 0.30 1.90 0.70 0.75 0.40 2.40 1.20 3.65 1.75 6.80 3.05 22.70 11.15 25.75 13.10 1.10 0.70 2.25 1.40 2.50 1.50 1.75 0.70 19.65 13.20 24.80 17.30 8.70 7 21.30 18.50 26.65 24.45 11.55 12.75 14.30 15.90 14.30 16.45 0 0.30 0.55 1.10 1.25 1.75 0.70 0.65 1.25 1.35 1.25 1.60 0 0.20 1.30 2.15 2.85 4.30 6.50 8.75 12.15 18.95 15.25 27.60 1.30 3.65 1.55 5.15 1.75 10.55 0.25 5.20 0.15 6.60 -0.60 8.25 -0.45 1.05 -1.15 2.70 -1.55 3.60 -1.75 4 -9.40 12.35 -12.80 13.85 -0.90 0.45 -2 0.95 -2.40 1.20 -3 1.85 -6 2.80 -8.85 2.80 -1.75 0 -3.15 0.20 -3.15 0.45 0 0.65 -11.45 0 -13.50 -0.75 -2.65 -0.95 -7.15 -2.90 -8 -3.45 -0.40 -0.30 -1.30 -0.75 -1.95 -1 -1.65 -0.70 -10.10 -9.05 -12.70 -12.50 -13.50 -17.85 -31.05 -35.95 -42.30 -43.55 -2.05 -1.35 -4.50 -3.15 -5.50 -3.95 -0.95 -0.85 -2.05 -1.50 -2.40 -1.50 -0.30 0 -1.55 -0.75 -2.75 -1.65 -1.20 -0.90 -2.50 -1.80 -2.90 -2 -0.40 -0.25 -1.65 -0.95 -2.75 -1.60 -1.10 -0.70 -3.55 -2.05 -5.50 -3 -1.90 -0.95 -4.05 -2.05 -4.75 -2.45 -3.50 -1.90 -7.70 -3.80 -11.50 -5.30 -2.35 -0.90 -4.95 -1.90 -5.80 -2.30 -0.85 -0.35 -2.75 -1 -4.25 -1.40 -1.50 -0.40 -3.95 -1.15 -5.45 -1.70 -1.50 -0.50 -4.50 -1.35 -6.60 -1.85 -2.15 -0.50 -3.90 -1.05 -3.90 -1.20 0 -0.15 -0.95 -0.35 -2.15 -0.40 -1.15 -0.10 -2.15 -0.35 -2.25 -0.65 -0.10 -0.30 -0.40 -0.40 -0.60 -0.25 -0.25 0.15 -1.75 0.05 -3.35 -0.25 -1.60 -0.25 -4.85 -0.75 -7.25 -1.05 -2.45 -0.35 -4.40 -0.75 -4.40 -0.90 0 -0.15 -1.25 -0.20 -2.75 -0.15 -1.50 0.10 -2.75 0 -2.75 -0.25 0 -0.20 -2 -0.35 -4.50 -0.25 -2.45 0.10 -4.50 0 -4.50 -0.25 0 -0.20 -3.60 -0.40 -8 -0.40 -4.40 0 -8 0.20 -8 0.45 0 0.25 -1.45 0.30 -3.25 0.20 -1.75 -0.15 -3.25 -0.10 -3.35 0.15 -0.10 0.25 -2.10 0.50 -4.50 0.60 -2.45 0.05 -4.40 0.25 -4.40 0.45 0 0.50 -4.85 1.40 -8.50 1.50 -2.05 0.10 -3.45 0.40 -3.80 0.85 -0.30 0.35 -1.70 0.80 -3.15 0.95 -1.40 0.10 -2.70 0.45 -2.85 0.65 -0.15 0.25 -1 0.45 -1.95 0.45 -0.95 0 -1.85 0.20 -2 0.50 -0.15 0.25 -0.95 0.50 -1.75 0.50 -0.80 0 -1.55 0.20 -1.70 0.40 -0.15 0.20 -2 0.95 -4.15 1.55 -4.25 1.25 -5.70 1.80 -7.75 2.85 -0.70 0.40 -1.65 0.70 -2.10 0.70 -0.45 0 -1.20 0.20 -1.70 0.45 -0.45 0.25 -1.75 0.85 -2.85 1.30 -3.20 1.40 -7.45 3.40 -8.25 3.85 -1.30 0.70 -3.70 1.80 -5.45 2.45 -0.95 0.35 -2.85 1.40 -4.25 2.40 -1.40 0.95 -3.75 2.35 -5.30 3.15 -2.75 1.45 -5 3 -12.55 8.55 -2.20 1.55 -4.10 2.85 -4.25 2.85 -0.55 0 -18 15.90 -21.20 19.30 -4.60 4.90 -11 12.40 -12.75 14.90 -0.80 1.20 -2.75 3.95 -4.25 6.10 -3.15 4.55 -3.90 5.65 -4.35 6.70 -0.15 0.40 -0.80 1.45 -1.40 2.25 -0.60 0.85 -1.25 1.85 -1.45 2.25 -0.20 0.40 -1 1.90 -1.80 3.25 -2.15 3.70 -8 15.80 -8 16.50 0 0.40 -1.60 4.10 -2.55 5.85 -0.25 0.50 -0.45 1.30 -0.45 1.80 0 0.50 -0.45 1.75 -1 2.85 -0.55 1.10 -1 2.25 -1 2.60 0 0.35 -0.20 1.05 -0.45 1.55 -1.20 2.35 -5.20 20.40 -6.35 28.55 -0.75 5.50 -1.10 6.75 -1.80 6.95 -0.95 0.25 -1.25 1.10 -0.40 1.10 0.30 0 0.50 1.30 0.50 2.95 0 2.40 -0.15 3 -0.85 3.20 -0.80 0.20 -0.80 0.25 0.05 0.30 0.60 0.05 0.80 0.30 0.60 0.85 -0.15 0.45 -0.30 8.40 -0.30 17.75 0 14.75 -0.10 16.95 -0.75 16.95 -0.50 0 -0.75 0.50 -0.75 1.50 0 1 0.25 1.50 0.75 1.50 0.40 0 0.75 0.35 0.75 0.75 0 0.40 -0.35 0.75 -0.75 0.75 -0.40 0 -0.75 0.35 -0.75 0.75 0 0.40 0.35 0.75 0.75 0.75 0.60 0 0.75 0.90 0.75 5 0 4.10 -0.15 5 -0.75 5 -0.40 0 -0.75 0.25 -0.75 0.55 0 0.40 -0.25 0.40 -0.75 -0.05 -0.50 -0.45 -0.75 -1.60 -0.75 -3.80 0 -1.80 -0.20 -3.20 -0.50 -3.20 -0.25 0 -0.50 0.55 -0.50 1.25 0 0.70 -0.20 1.25 -0.50 1.25 -0.25 0 -0.50 -0.20 -0.50 -0.45 0 -0.25 -0.45 -0.55 -1 -0.70 -0.55 -0.15 -1.20 -0.85 -1.50 -1.55 -0.50 -1.40 -2.50 -1.85 -2.50 -0.55 0 0.95 -0.70 0.95 -1.50 0 -0.95 -1.15 -2.70 -0.75 -2.90 0.65 -0.15 0.90 0.10 1.10 1.25 1.15 1.15 0.10 1.20 0.10 0.30 0.30 -0.65 0.10 -1.15 0.55 -1.15 1 0 0.60 -0.15 0.65 -0.70 0.20 -0.40 -0.35 -1.45 -0.45 -2.60 -0.25 -1.70 0.25 -2.10 0.10 -3.05 -1 -1.25 -1.40 -2.65 -1.70 -2.65 -0.60 0 0.40 -0.25 0.80 -0.55 0.90 -0.35 0.10 -0.60 1.45 -0.65 3.15 l-0.05 3 1.55 0.15 c1 0.10 1.90 -0.15 2.40 -0.70 0.75 -0.75 1.05 -0.75 2.15 -0.15 0.65 0.35 1 0.75 0.70 0.85 -0.30 0.10 -0.55 0.55 -0.55 1 -0.05 1.05 -1.45 2.80 -2.60 3.25 -0.45 0.15 -1.05 1.05 -1.35 1.95 -0.25 0.90 -0.50 1.35 -0.50 1.05 -0.05 -1 -2.55 -0.80 -2.95 0.25 -0.25 0.65 -0.40 0.55 -0.60 -0.65 -0.15 -0.90 -0.70 -1.70 -1.40 -2 -1.50 -0.65 -1.40 -1.15 0.25 -1.35 0.90 -0.10 1.45 -0.50 1.55 -1.10 0.20 -0.80 0 -0.90 -1.45 -0.60 -1.50 0.30 -1.55 0.25 -0.75 -0.35 1.60 -1.20 0.70 -2.30 -1.80 -2.20 -1.80 0.10 -2.15 0.30 -2.30 1.25 -0.10 0.65 -0.50 1.10 -1 1.05 -0.55 0 -0.60 -0.15 -0.20 -0.30 0.30 -0.10 0.60 -0.55 0.60 -0.90 0 -0.80 -1.35 -1.40 -1.75 -0.75 -0.60 1 -1.25 0.45 -0.95 -0.75 0.25 -1.05 0.15 -1.25 -0.75 -1.25 -0.80 0 -1.05 -0.30 -1.05 -1.20 0 -1.25 -1.15 -2.80 -2.05 -2.80 -0.30 0 -1.20 0.70 -2.05 1.50 l-1.50 1.50 -1.90 -1.05 c-1.05 -0.60 -2.25 -0.95 -2.70 -0.80 -1 0.40 -1.05 1.85 -0.10 1.85 0.35 0 1 0.50 1.40 1.10 1 1.45 4.35 1.55 5.85 0.20 0.75 -0.65 1.25 -0.80 1.60 -0.45 0.60 0.60 -2.50 3.15 -3.75 3.15 -0.85 0 -2.85 1 -3.35 1.65 -0.40 0.55 -4.05 1.35 -4.60 1 -0.25 -0.15 -0.30 -0.80 -0.15 -1.45 0.20 -0.65 0.20 -1.20 0.05 -1.20 -0.65 0 -2.75 2.50 -2.75 3.25 0 0.90 -1.05 1 -1.90 0.15 -0.40 -0.40 -0.70 -0.20 -1.20 0.80 -0.55 1.25 -0.50 1.50 0.55 2.30 1.15 0.80 1.15 0.90 0.30 1.40 -0.80 0.40 -0.85 0.70 -0.35 1.90 0.30 0.80 0.90 3.25 1.25 5.45 0.40 2.20 1.05 4.80 1.45 5.75 0.95 2.10 4.40 13 4.40 13.90 0 0.30 -0.20 0.60 -0.50 0.60 -0.25 0 -0.50 -0.30 -0.50 -0.60z m1.50 -43.60 c0 -0.95 -1.45 -2.40 -2.05 -2.05 -0.65 0.45 -0.55 2.15 0.20 2.40 1.15 0.50 1.85 0.35 1.85 -0.35z m-10 -1.05 c0 -0.40 -0.35 -0.75 -0.75 -0.75 -1.30 0 -0.90 1 0.65 1.45 0.05 0.05 0.10 -0.30 0.10 -0.70z m25.75 -1.75 c0.20 -0.30 -0.25 -0.50 -1 -0.50 -0.75 0 -1.20 0.20 -1 0.50 0.15 0.30 0.60 0.50 1 0.50 0.40 0 0.85 -0.20 1 -0.50z m3.25 -3.05 c0 -0.25 -0.80 -0.85 -1.85 -1.25 -1.65 -0.70 -2 -0.70 -3.75 0.10 -1.05 0.45 -1.90 1.05 -1.90 1.30 0 0.20 1.70 0.40 3.75 0.40 2.30 0 3.75 -0.20 3.75 -0.55z"/>
  <path d="M139 347.50 c0 -0.65 0.55 -0.65 1.50 0 0.60 0.40 0.55 0.50 -0.35 0.50 -0.65 0 -1.15 -0.20 -1.15 -0.50z"/>
  <path d="M136.25 346.50 c-0.15 -0.25 -0.80 -0.55 -1.40 -0.55 -0.85 -0.05 -0.90 -0.10 -0.25 -0.30 0.50 -0.10 1.40 0.15 2 0.55 0.60 0.45 0.85 0.80 0.55 0.80 -0.35 0 -0.75 -0.20 -0.90 -0.50z"/>
  <path d="M86.40 338.15 c-0.15 -2.10 -0.15 -4.25 0 -4.75 0.25 -1.10 1.60 -1.20 1.60 -0.15 0 0.40 -0.35 0.75 -0.75 0.75 -0.40 0 -0.75 0.45 -0.75 1 0 0.55 0.35 1 0.75 1 0.60 0 0.75 0.65 0.75 3 0 2.20 -0.20 3 -0.70 3 -0.50 0 -0.75 -1.05 -0.90 -3.85z"/>
  <path d="M62.05 332.25 c0 -0.85 -0.30 -1.80 -0.60 -2.10 -0.30 -0.30 -0.45 -1.05 -0.35 -1.70 0.10 -0.85 0.50 -1.25 1.45 -1.35 1.30 -0.15 1.35 -0.05 1.30 2.35 -0.05 1.65 -0.25 2.55 -0.65 2.55 -0.35 0 -0.75 0.40 -0.85 0.90 -0.15 0.45 -0.25 0.15 -0.30 -0.65z"/>
  <path d="M66 315.05 c0 -0.25 0.35 -0.60 0.80 -0.75 1.10 -0.45 1.20 -0.40 0.90 0.45 -0.35 0.80 -1.70 1.05 -1.70 0.30z"/>
 </g>
</svg>